<?xml version="1.0" standalone="no"?>
<!DOCTYPE svg PUBLIC "-//W3C//DTD SVG 1.1//EN" "http://www.w3.org/Graphics/SVG/1.1/DTD/svg11.dtd">
<svg xmlns="http://www.w3.org/2000/svg" xmlns:xlink="http://www.w3.org/1999/xlink" version="1.1" id="Layer_1" x="0px" y="0px" width="672" viewBox="0 0 672 272" enable-background="new 0 0 672 272" xml:space="preserve" height="272">
<path fill="#000000" opacity="1.000000" stroke="none" d=" M351.918579,238.342438   C336.924530,238.443634 325.569244,232.699448 318.626526,219.702042   C310.880035,205.199860 311.867554,190.791336 320.888672,177.217178   C333.732635,157.890762 358.110779,150.757294 379.921143,159.486450   C381.098419,159.957642 382.264038,160.872772 383.800720,160.194260   C385.250031,158.736633 384.627991,156.800674 384.642517,155.058395   C384.714600,146.401077 384.566864,137.740692 384.733398,129.085938   C384.816711,124.755356 383.865204,121.185806 379.580566,119.191719   C382.925140,116.458595 393.609833,113.173668 398.550659,113.278229   C399.850098,115.405289 399.316193,117.794441 399.318634,120.069618   C399.354980,154.035126 399.333038,188.000687 399.351440,221.966232   C399.354218,227.066345 398.357452,232.492691 404.445679,235.862976   C404.108307,236.155945 403.770935,236.448929 403.433563,236.741913   C396.550812,236.741913 389.668060,236.741913 382.651245,236.741913   C385.952484,226.918777 386.484711,220.969589 385.289124,208.303680   C379.322083,223.794174 371.610352,237.373428 351.918579,238.342438  M337.327148,227.157700   C345.525024,235.866623 355.337555,237.414261 365.172485,231.195129   C372.161377,226.775696 376.398621,220.055313 379.761658,212.641479   C386.215759,198.413498 384.510895,183.338455 384.635468,168.442291   C384.651398,166.535095 383.437805,165.472336 382.018951,164.479324   C368.695312,155.154373 347.730133,158.348099 337.877197,171.223541   C326.577087,185.990067 326.129852,211.136429 337.327148,227.157700  z"/>
<path fill="#000000" opacity="1.000000" stroke="none" d=" M222.407410,233.768112   C211.262024,226.407379 211.340530,208.822601 218.492676,199.512238   C226.568771,188.999115 237.329269,183.492798 250.220352,181.665604   C251.681946,181.458435 253.155380,181.334900 255.265121,181.101639   C251.028030,177.976883 246.439850,178.296600 242.213547,177.413254   C241.412552,177.245834 240.552811,177.369980 239.721024,177.337738   C236.285782,177.204514 232.749298,176.769012 231.391403,173.106766   C230.013046,169.389389 232.593796,166.697388 235.130051,164.578995   C243.452972,157.627350 253.199188,154.416153 263.902863,156.008896   C279.414307,158.317078 287.821045,168.339645 289.476837,183.946594   C290.888916,197.256256 290.014191,210.547379 290.251343,223.842743   C290.337250,228.657089 290.233307,233.258224 295.081329,236.708344   C288.353668,236.708344 281.625977,236.708344 275.640717,236.708344   C275.640717,217.923584 275.734222,199.201920 275.574677,180.482407   C275.535004,175.830078 274.396851,171.258896 271.896698,167.183594   C266.459229,158.320389 253.004211,156.463013 245.320663,163.503342   C240.875137,167.576721 241.555206,171.505814 247.082397,173.671799   C247.546646,173.853729 248.005066,174.075089 248.487488,174.182449   C268.881500,178.720490 271.780304,193.131058 270.075653,207.874603   C268.079285,225.140915 255.213348,237.231262 238.823227,238.268768   C233.011673,238.636627 227.638885,237.070190 222.407410,233.768112  M236.848770,229.812698   C240.339417,231.841721 244.106781,232.254013 247.923340,231.246246   C264.573181,226.849792 273.352722,200.306473 262.797363,186.512955   C261.050049,184.229630 259.063354,182.826721 256.001892,183.468994   C251.444962,184.425034 246.911133,185.422333 242.637253,187.346832   C225.840668,194.910263 222.258453,218.351135 236.848770,229.812698  z"/>
<path fill="#000000" opacity="1.000000" stroke="none" d=" M120.443527,230.573883   C130.421768,227.500473 137.691116,221.448380 143.213745,212.492004   C145.043976,215.206024 143.543716,216.658569 142.741180,218.039307   C134.652252,231.956024 116.533234,239.881409 100.409714,237.728470   C87.928871,236.061920 77.233871,231.541565 69.358101,221.703201   C50.155800,197.715744 63.152565,162.763092 93.346222,156.701385   C106.395943,154.081497 118.501907,156.176605 129.298782,164.141190   C136.003922,169.087387 139.730240,175.968201 141.753845,184.020615   C142.826630,188.289459 141.413971,189.376953 137.446320,189.358322   C118.954880,189.271408 100.462799,189.316437 81.970955,189.327911   C75.253822,189.332077 75.076141,189.357803 75.384453,195.871765   C76.380310,216.912476 95.353233,236.767136 120.443527,230.573883  M122.192261,185.690964   C126.346825,186.033264 128.443558,185.207474 127.013718,180.108490   C123.595146,167.917404 114.575378,159.504608 103.895393,159.319656   C89.965935,159.078445 80.830246,165.989288 76.921112,179.724838   C75.504295,184.703094 76.156464,185.654846 81.301529,185.670151   C94.623482,185.709763 107.945625,185.687027 122.192261,185.690964  z"/>
<path fill="#000000" opacity="1.000000" stroke="none" d=" M493.172058,227.199005   C471.922485,245.518082 439.923004,239.490143 426.832977,218.717072   C411.594604,194.534775 426.241425,161.736206 454.466888,156.663376   C469.056305,154.041275 481.858582,157.115173 492.497192,167.686844   C496.842255,172.004547 499.497803,177.351944 500.904663,183.307343   C502.071350,188.246201 501.311462,189.294220 496.271484,189.304016   C478.290741,189.338974 460.307617,189.476837 442.330597,189.215851   C437.424286,189.144623 436.257812,190.795578 436.175568,195.500946   C435.874268,212.730515 450.449310,233.451035 472.969635,231.676071   C482.267578,230.943207 489.679260,226.665726 495.747681,219.729324   C497.563782,217.653534 498.559174,214.862320 501.458954,213.611893   C500.548981,219.091995 497.148804,223.113174 493.172058,227.199005  M444.178253,167.702835   C440.212219,172.887512 437.365326,178.485825 437.153564,185.184906   C446.184448,186.389542 483.700256,185.913193 487.396332,184.513199   C485.318573,173.573090 481.060120,164.039047 469.516602,160.366867   C460.058624,157.358154 451.476044,159.555496 444.178253,167.702835  z"/>
<path fill="#000000" opacity="1.000000" stroke="none" d=" M175.650681,183.999878   C175.650177,166.189209 175.572906,148.878006 175.697937,131.568253   C175.734100,126.560211 175.496002,121.899277 169.570923,118.846809   C176.083466,115.563904 182.301971,114.475433 188.114227,112.893608   C189.670746,114.564880 189.369507,116.129524 189.377548,117.583908   C189.557007,150.029785 190.650177,182.475296 189.445923,214.922119   C189.415070,215.753494 189.364410,216.591080 189.427109,217.417877   C189.937759,224.150894 188.423416,231.504761 196.645401,236.805801   C186.793411,236.805801 178.420517,236.805801 170.047623,236.805801   C176.628677,232.459915 175.655853,226.045349 175.651642,219.953583   C175.643448,208.135681 175.650299,196.317780 175.650681,183.999878  z"/>
<path fill="#000000" opacity="1.000000" stroke="none" d=" M458.220276,144.341766   C454.628632,145.859268 451.530518,147.689651 447.681396,148.221008   C466.395660,129.820007 484.690948,111.706047 509.103180,101.787582   C510.096375,101.384056 511.140808,100.465034 512.521240,101.693344   C509.941833,105.016357 506.210205,106.933640 503.015381,109.447289   C496.854797,114.294304 491.345947,119.783997 485.925537,125.431404   C478.139130,133.543777 468.990997,139.840408 458.220276,144.341766  z"/>
</svg>