<?xml version="1.0" standalone="no"?>
<!DOCTYPE svg PUBLIC "-//W3C//DTD SVG 20010904//EN"
 "http://www.w3.org/TR/2001/REC-SVG-20010904/DTD/svg10.dtd">
<svg version="1.0" xmlns="http://www.w3.org/2000/svg"
 width="714.000000pt" height="1280.000000pt" viewBox="0 0 714.000000 1280.000000"
 preserveAspectRatio="xMidYMid meet">

<g transform="translate(0.000000,1280.000000) scale(0.100000,-0.100000)"
fill="#000000" stroke="none">
<path d="M464 12212 c-63 -30 -82 -102 -38 -146 8 -9 41 -23 72 -32 31 -9 64
-23 72 -31 13 -13 13 -16 -4 -29 -25 -18 -57 -18 -103 1 -19 8 -37 15 -38 15
-5 0 -28 -61 -24 -63 42 -29 162 -36 208 -12 55 28 65 117 18 148 -12 8 -48
22 -79 31 -63 18 -76 30 -58 51 15 18 69 19 105 3 29 -13 31 -12 40 24 5 21 2
29 -14 38 -41 21 -113 22 -157 2z"/>
<path d="M1381 12208 c-154 -76 -98 -308 75 -311 101 -1 169 65 169 163 -1 72
-30 121 -89 149 -54 27 -100 27 -155 -1z m112 -59 c36 -16 52 -53 48 -115 -3
-62 -100 -89 -140 -38 -37 47 -24 135 22 154 30 12 42 12 70 -1z"/>
<path d="M2225 12223 c-83 -21 -109 -124 -43 -167 13 -8 44 -20 70 -26 60 -15
80 -36 53 -56 -24 -17 -49 -17 -100 1 -22 8 -41 15 -41 15 -4 0 -26 -61 -23
-63 42 -29 162 -36 208 -12 55 28 65 117 17 149 -13 8 -49 22 -80 31 -49 14
-57 20 -54 38 4 27 55 35 100 16 34 -14 36 -12 44 27 5 28 3 31 -34 42 -40 12
-81 14 -117 5z"/>
<path d="M3940 12223 c-141 -50 -159 -241 -29 -308 37 -19 127 -19 173 0 l37
16 -3 67 -3 67 -35 0 c-35 0 -35 0 -38 -47 l-3 -48 -39 0 c-58 0 -93 34 -93
90 0 36 6 48 32 72 36 32 57 35 106 11 34 -16 36 -16 57 4 17 18 19 25 9 37
-30 36 -121 57 -171 39z"/>
<path d="M4355 12214 c-47 -24 -57 -39 -59 -82 -1 -53 23 -78 93 -98 31 -9 63
-23 71 -31 13 -13 13 -16 -4 -29 -25 -18 -57 -18 -103 1 -40 17 -48 13 -58
-25 -5 -22 -2 -27 28 -38 46 -17 142 -15 177 3 35 18 50 43 50 82 0 48 -25 71
-100 94 -76 23 -88 32 -70 54 15 18 69 19 105 3 30 -13 33 -11 41 28 5 28 3
31 -34 42 -54 16 -101 15 -137 -4z"/>
<path d="M796 12212 c-6 -10 -126 -303 -126 -308 0 -2 18 -4 41 -4 36 0 41 3
50 30 11 29 13 30 70 30 32 0 62 1 67 3 4 1 13 -13 21 -30 13 -30 19 -33 57
-33 l42 0 -17 43 c-9 23 -39 95 -66 160 l-50 117 -42 0 c-23 0 -44 -4 -47 -8z
m78 -159 c7 -21 4 -23 -33 -23 -45 0 -44 -6 -10 78 l11 27 13 -30 c7 -16 16
-40 19 -52z"/>
<path d="M1050 12060 l0 -160 115 0 115 0 0 35 0 35 -75 0 -75 0 0 125 0 125
-40 0 -40 0 0 -160z"/>
<path d="M1672 12063 l3 -158 39 0 39 0 4 79 c2 44 5 81 6 83 2 1 31 -36 66
-82 57 -78 66 -85 97 -85 l34 0 0 160 0 160 -41 0 -40 0 2 -80 c1 -44 -1 -80
-5 -80 -4 0 -23 21 -43 47 -86 114 -86 113 -126 113 l-38 0 3 -157z"/>
<path d="M2443 12063 l2 -158 118 -3 c111 -3 117 -2 119 18 0 11 1 26 2 33 1
8 -23 14 -79 17 -77 5 -80 6 -80 30 0 24 3 25 68 28 l67 3 0 34 0 35 -63 0
c-35 0 -66 2 -69 5 -3 3 -3 17 0 30 4 24 8 25 78 25 l74 0 0 30 0 30 -119 0
-119 0 1 -157z"/>
<path d="M2814 12183 c-67 -159 -114 -273 -114 -278 0 -3 18 -5 41 -5 36 0 41
3 50 30 11 29 12 30 80 30 69 0 70 -1 80 -30 10 -27 15 -30 54 -30 l44 0 -46
108 c-24 59 -55 131 -66 159 -22 52 -23 53 -64 53 -40 0 -44 -3 -59 -37z m90
-131 c7 -20 4 -22 -33 -22 l-40 0 14 41 c8 22 17 45 21 51 6 10 22 -19 38 -70z"/>
<path d="M3020 12190 c0 -31 2 -32 70 -35 l25 -1 3 -127 3 -127 39 0 39 0 3
128 3 127 48 3 c45 3 47 5 47 33 l0 29 -140 0 -140 0 0 -30z"/>
<path d="M3332 12063 l3 -158 43 -3 42 -3 0 160 0 161 -45 0 -46 0 3 -157z"/>
<path d="M3480 12060 l0 -160 40 0 40 0 0 85 c0 47 3 85 8 85 4 0 36 -39 70
-85 58 -78 67 -85 98 -85 l34 0 0 160 0 160 -40 0 -39 0 -3 -85 -3 -85 -64 85
c-61 81 -67 85 -103 85 l-38 0 0 -160z"/>
<path d="M4592 12098 c3 -136 15 -165 72 -189 39 -17 123 -14 152 6 49 32 59
61 63 187 l3 118 -41 0 -41 0 0 -103 c0 -125 -12 -150 -68 -145 -51 4 -62 31
-62 151 l0 97 -41 0 -41 0 4 -122z"/>
<path d="M4940 12060 l0 -160 35 0 35 0 0 81 c0 94 7 94 55 5 39 -74 59 -72
102 9 45 85 55 83 52 -11 l-2 -79 36 -3 37 -3 0 161 0 161 -37 -3 c-34 -3 -39
-8 -84 -86 -26 -46 -50 -84 -55 -85 -4 -1 -10 5 -15 13 -4 8 -27 48 -50 88
-38 67 -44 72 -75 72 l-34 0 0 -160z"/>
<path d="M5350 12060 l0 -160 40 0 39 0 3 81 3 80 38 -65 c49 -86 64 -86 114
2 l38 67 3 -82 3 -83 39 0 40 0 0 160 0 160 -37 0 c-37 0 -39 -2 -88 -90 -27
-49 -52 -90 -55 -90 -3 0 -28 41 -55 90 -49 89 -50 90 -87 90 l-38 0 0 -160z"/>
<path d="M5808 12083 c-79 -194 -77 -183 -30 -183 35 0 41 4 52 30 12 29 14
30 80 30 66 0 68 -1 80 -30 11 -26 18 -30 51 -30 22 0 39 4 39 10 0 5 -15 44
-33 87 -19 43 -47 110 -64 148 l-29 70 -45 3 -44 2 -57 -137z m122 1 c11 -25
20 -48 20 -50 0 -2 -18 -4 -41 -4 -29 0 -40 4 -36 13 2 6 10 29 18 50 7 20 15
37 16 37 2 0 13 -21 23 -46z"/>
<path d="M6110 12060 l0 -160 39 0 c40 0 40 0 43 43 3 39 5 42 32 42 22 0 32
-8 50 -40 21 -37 26 -40 71 -43 l48 -3 -16 25 c-54 83 -52 73 -23 107 20 24
26 41 26 79 0 42 -4 51 -35 79 -35 30 -38 31 -135 31 l-100 0 0 -160z m168 84
c25 -17 29 -56 8 -73 -8 -7 -32 -11 -53 -9 -35 3 -38 6 -41 36 -2 19 -1 40 2
48 7 19 56 18 84 -2z"/>
<path d="M6437 12138 c24 -46 51 -93 59 -105 8 -12 14 -47 14 -78 l0 -55 40 0
40 0 0 56 c0 49 6 67 55 153 30 54 55 100 55 104 0 4 -17 7 -38 7 -35 0 -39
-3 -70 -60 -19 -33 -36 -60 -40 -60 -4 0 -22 27 -40 60 -32 59 -33 60 -77 60
l-44 0 46 -82z"/>
<path d="M800 11668 c-59 -31 -82 -66 -87 -130 -8 -107 63 -184 168 -182 93 1
159 68 159 162 0 72 -30 125 -85 152 -54 26 -100 25 -155 -2z m113 -60 c34
-18 46 -40 47 -83 0 -74 -53 -117 -114 -91 -62 26 -73 123 -19 166 29 23 54
25 86 8z"/>
<path d="M1103 11684 c-10 -4 -13 -47 -13 -165 l0 -160 42 3 c41 3 41 3 42 43
l1 40 63 6 c53 5 69 11 95 37 51 52 40 145 -23 177 -29 15 -185 29 -207 19z
m158 -74 c22 -12 26 -59 7 -78 -7 -7 -29 -12 -50 -12 l-38 0 0 50 c0 49 1 50
31 50 17 0 39 -5 50 -10z"/>
<path d="M1390 11682 c-5 -2 -10 -17 -10 -32 0 -27 3 -29 48 -32 l47 -3 3
-127 3 -128 39 0 40 0 0 130 0 130 45 0 c39 0 45 3 51 25 4 14 4 28 1 32 -6 6
-250 10 -267 5z"/>
<path d="M1913 11669 c-137 -68 -112 -269 37 -309 62 -17 140 9 177 57 24 32
28 45 28 104 0 81 -18 112 -85 147 -55 28 -103 28 -157 1z m123 -64 c57 -39
53 -140 -6 -170 -38 -19 -74 -11 -101 24 -29 36 -22 116 12 142 29 22 67 24
95 4z"/>
<path d="M2216 11683 c-3 -4 -6 -78 -6 -165 l0 -158 40 0 39 0 3 86 3 87 68
-87 c61 -79 70 -86 102 -86 l35 0 0 160 0 160 -40 0 -40 0 0 -81 c0 -44 -4
-79 -8 -77 -5 2 -38 39 -73 83 -48 60 -71 80 -91 82 -14 1 -29 -1 -32 -4z"/>
<path d="M2820 11682 l-35 -3 -63 -153 c-34 -84 -62 -156 -62 -159 0 -4 18 -7
39 -7 34 0 40 4 49 29 10 28 14 29 78 33 l67 3 14 -32 c12 -29 18 -33 53 -33
22 0 40 4 40 9 0 17 -121 296 -133 306 -7 6 -28 9 -47 7z m26 -124 c6 -18 14
-41 19 -50 6 -16 1 -18 -35 -18 -30 0 -41 4 -37 13 2 6 10 29 18 50 7 20 16
37 19 37 3 0 10 -15 16 -32z"/>
<path d="M3635 11681 c-3 -2 -5 -76 -5 -163 l0 -158 40 0 40 0 0 159 0 159
-35 4 c-20 2 -38 2 -40 -1z"/>
<path d="M3840 11683 c-62 -23 -93 -84 -69 -136 12 -26 59 -51 116 -62 42 -8
60 -30 43 -50 -16 -19 -61 -19 -107 0 -40 17 -48 13 -58 -26 -6 -24 -3 -28 32
-40 85 -28 182 -9 208 42 37 71 6 112 -117 149 -45 14 -54 25 -37 46 13 16 75
16 110 0 11 -5 19 1 27 19 7 14 12 30 12 35 0 21 -120 38 -160 23z"/>
<path d="M4275 11681 c-3 -2 -5 -46 -5 -97 0 -51 -4 -104 -10 -118 -19 -52
-86 -59 -108 -11 -7 14 -12 71 -12 125 l0 100 -40 0 -40 0 0 -115 c0 -129 11
-165 58 -188 46 -24 80 -28 126 -16 63 16 85 44 96 120 12 78 13 199 3 200
-37 4 -65 4 -68 0z"/>
<path d="M4523 11683 c-17 -2 -33 -10 -36 -16 -3 -7 -32 -78 -65 -159 l-61
-148 42 0 c37 0 44 4 57 33 14 30 18 32 78 35 l63 3 14 -36 c14 -32 19 -35 55
-35 22 0 40 4 40 9 0 10 -120 288 -133 309 -5 6 -11 11 -15 10 -4 0 -21 -3
-39 -5z m27 -118 c5 -14 13 -37 16 -50 6 -23 3 -25 -30 -25 -20 0 -36 3 -36 7
0 11 32 93 37 93 2 0 8 -11 13 -25z"/>
<path d="M4755 11681 c-3 -2 -5 -76 -5 -163 l0 -159 113 3 112 3 0 30 0 30
-75 5 -75 5 4 123 c2 67 0 122 -5 123 -44 4 -66 4 -69 0z"/>
<path d="M5194 11676 c-40 -18 -64 -52 -64 -91 0 -50 24 -72 100 -95 54 -16
70 -25 70 -39 0 -33 -64 -42 -110 -16 -35 20 -37 19 -55 -15 l-16 -31 38 -16
c46 -19 139 -21 173 -3 37 20 49 41 50 87 0 51 -26 75 -100 93 -59 14 -79 33
-59 56 13 16 75 16 110 0 11 -5 19 1 27 19 16 35 17 34 -23 51 -43 17 -100 18
-141 0z"/>
<path d="M5488 11682 l-58 -3 0 -159 0 -160 40 0 40 0 0 45 0 45 45 0 c92 0
145 44 145 119 0 53 -38 98 -88 107 -61 10 -65 10 -124 6z m110 -78 c24 -17
29 -53 10 -72 -7 -7 -31 -12 -55 -12 l-43 0 0 50 c0 50 0 50 33 50 18 0 43 -7
55 -16z"/>
<path d="M6140 11682 c-5 -2 -10 -17 -10 -33 0 -28 2 -29 44 -29 31 0 46 -5
50 -16 3 -9 6 -67 6 -130 l0 -114 40 0 40 0 0 129 0 130 46 3 c43 3 47 5 50
31 1 15 -2 27 -9 28 -59 2 -249 3 -257 1z"/>
<path d="M1690 11520 l0 -160 40 0 40 0 0 160 0 160 -40 0 -40 0 0 -160z"/>
<path d="M3263 11668 c49 -118 84 -203 101 -248 22 -55 22 -55 66 -55 l43 0
44 110 c25 61 53 131 64 158 l19 47 -40 0 c-32 0 -42 -4 -50 -22 -5 -13 -23
-58 -40 -100 -18 -43 -35 -78 -38 -78 -4 0 -24 45 -45 100 l-39 100 -45 0
c-32 0 -44 -4 -40 -12z"/>
<path d="M5750 11520 l0 -160 110 0 110 0 0 35 0 35 -70 0 -70 0 0 125 0 125
-40 0 -40 0 0 -160z"/>
<path d="M6010 11520 l0 -160 40 0 40 0 0 160 0 160 -40 0 -40 0 0 -160z"/>
<path d="M3030 11591 c-15 -29 -12 -48 11 -64 42 -30 88 8 69 57 -12 33 -64
37 -80 7z"/>
<path d="M410 11490 l0 -30 65 0 65 0 0 30 0 30 -65 0 -65 0 0 -30z"/>
<path d="M3032 11438 c-35 -35 14 -102 57 -79 45 25 33 91 -17 91 -16 0 -33
-5 -40 -12z"/>
<path d="M4657 10892 c-65 -71 -60 -246 9 -303 26 -22 28 0 3 44 -33 58 -34
165 -1 220 12 21 22 42 22 48 0 15 -15 11 -33 -9z"/>
<path d="M6490 10901 c0 -6 10 -27 22 -47 33 -56 32 -163 -1 -221 -26 -45 -23
-65 5 -42 67 55 71 230 7 301 -18 20 -33 24 -33 9z"/>
<path d="M2820 10775 c0 -115 2 -126 18 -123 11 2 18 14 20 36 4 41 16 41 44
-3 15 -23 31 -35 46 -35 26 0 25 5 -21 63 l-30 38 32 33 c36 37 38 46 12 46
-10 0 -33 -16 -50 -35 -17 -20 -31 -32 -32 -28 0 4 -1 35 -2 68 -2 48 -5 60
-19 63 -16 3 -18 -8 -18 -123z"/>
<path d="M4280 10775 c0 -115 2 -126 18 -123 15 3 17 17 17 123 0 106 -2 120
-17 123 -16 3 -18 -8 -18 -123z"/>
<path d="M543 10882 c-7 -4 -22 -29 -33 -55 -12 -26 -23 -47 -25 -47 -3 0 -14
23 -26 50 -17 40 -26 50 -46 50 l-24 0 35 -67 c20 -40 36 -87 38 -113 3 -37 7
-45 23 -45 17 0 19 6 17 36 -2 26 7 55 37 110 43 79 44 106 4 81z"/>
<path d="M1176 10867 c-31 -31 -34 -57 -6 -57 11 0 20 7 20 15 0 18 34 37 54
29 32 -12 17 -54 -40 -120 -31 -35 -53 -68 -49 -74 3 -5 40 -10 81 -10 59 0
74 3 74 15 0 11 -12 15 -50 15 -27 0 -50 3 -50 6 0 4 20 29 45 55 67 71 60
133 -17 145 -30 5 -41 2 -62 -19z"/>
<path d="M1455 10878 c-3 -8 -4 -61 -3 -119 3 -88 6 -104 20 -107 14 -3 17 6
20 50 l3 53 48 3 c51 3 49 7 51 -68 1 -28 5 -35 21 -35 19 0 20 8 23 109 3
110 -3 131 -34 119 -10 -3 -12 -17 -7 -49 l6 -44 -56 0 -56 0 -3 47 c-3 45
-22 69 -33 41z"/>
<path d="M2254 10881 c-2 -2 -4 -55 -4 -118 l0 -113 53 0 c71 0 101 17 105 58
2 18 -2 40 -9 48 -9 11 -9 21 1 44 10 25 10 34 -3 54 -14 20 -26 25 -78 28
-33 1 -63 1 -65 -1z m110 -46 c10 -28 -5 -45 -40 -45 -31 0 -34 3 -34 30 0 27
3 30 34 30 21 0 36 -6 40 -15z m-13 -85 c27 -15 24 -48 -5 -62 -37 -16 -56 -4
-56 37 0 29 4 35 21 35 11 0 29 -5 40 -10z"/>
<path d="M2995 10880 c-8 -14 3 -30 21 -30 8 0 14 9 14 20 0 21 -24 28 -35 10z"/>
<path d="M3532 10881 c-9 -6 -12 -36 -10 -117 l3 -109 31 -3 c54 -5 97 12 122
48 35 53 24 133 -24 165 -28 18 -103 28 -122 16z m117 -65 c20 -43 4 -107 -32
-124 -48 -23 -57 -11 -57 71 0 41 3 77 7 81 4 4 21 6 38 4 22 -2 34 -11 44
-32z"/>
<path d="M4195 10880 c-4 -7 -3 -16 3 -22 14 -14 45 -2 40 15 -6 16 -34 21
-43 7z"/>
<path d="M4714 10881 c-2 -2 -4 -10 -4 -18 0 -9 16 -13 55 -13 30 0 55 -4 55
-9 0 -4 -18 -47 -40 -95 -22 -47 -40 -89 -40 -91 0 -3 8 -5 19 -5 18 0 29 19
91 168 13 29 20 55 17 58 -7 7 -147 11 -153 5z"/>
<path d="M5018 10882 l-28 -3 0 -115 c0 -107 1 -114 20 -114 17 0 20 7 20 45
l0 45 45 0 c53 0 85 25 85 68 0 60 -48 85 -142 74z m100 -60 c5 -33 -15 -52
-54 -52 -33 0 -34 1 -34 41 l0 40 43 -3 c35 -3 43 -7 45 -26z"/>
<path d="M5383 10878 c-6 -7 -22 -44 -35 -81 -13 -38 -28 -69 -32 -70 -5 -1
-22 33 -39 76 -26 66 -34 77 -54 77 -23 0 -23 -1 -23 -115 0 -94 3 -115 15
-115 11 0 15 18 17 83 l3 82 32 -80 c41 -105 58 -106 91 -7 13 39 27 72 31 72
4 0 7 -33 7 -72 -1 -62 2 -73 17 -76 16 -3 17 6 15 115 -3 98 -6 118 -19 121
-9 1 -21 -3 -26 -10z"/>
<path d="M5763 10864 c-22 -22 -25 -32 -20 -67 7 -50 30 -70 75 -63 22 3 32 1
32 -8 0 -18 -20 -33 -50 -38 -14 -1 -26 -11 -28 -20 -4 -23 19 -23 64 -2 41
20 58 66 51 137 -8 83 -71 114 -124 61z m88 -41 c17 -46 -26 -84 -59 -51 -18
18 -15 66 5 76 23 13 43 4 54 -25z"/>
<path d="M6019 10879 c-6 -3 -8 -53 -7 -115 3 -93 5 -109 20 -112 13 -3 17 6
20 40 l3 43 47 3 c37 2 52 9 68 29 50 64 -7 127 -109 120 -18 -1 -37 -5 -42
-8z m121 -49 c18 -34 -4 -62 -48 -58 -30 2 -38 7 -40 26 -6 39 5 52 42 52 25
0 38 -6 46 -20z"/>
<path d="M6238 10882 c-16 -3 -18 -17 -18 -118 0 -107 1 -114 20 -114 17 0 19
8 22 78 2 52 6 71 11 57 5 -11 19 -45 31 -75 32 -79 46 -76 81 22 l30 83 3
-82 c3 -75 5 -83 22 -83 19 0 20 7 20 114 0 67 -4 117 -10 121 -26 16 -47 -8
-75 -85 -17 -44 -32 -80 -35 -80 -3 0 -19 36 -35 80 -31 81 -37 89 -67 82z"/>
<path d="M3920 10854 c0 -9 -8 -23 -17 -30 -17 -13 -17 -15 0 -25 13 -8 17
-24 17 -73 0 -49 4 -65 16 -70 28 -11 54 -6 54 9 0 8 -7 15 -15 15 -12 0 -15
13 -15 60 0 47 3 60 15 60 19 0 20 19 1 26 -8 3 -16 14 -19 25 -6 23 -37 26
-37 3z"/>
<path d="M615 10805 c-51 -50 -20 -155 46 -155 45 0 67 16 78 56 25 91 -63
161 -124 99z m84 -36 c30 -54 -17 -112 -60 -73 -23 21 -24 52 -3 82 20 28 44
25 63 -9z"/>
<path d="M780 10756 c0 -94 9 -105 85 -103 l56 1 -3 86 c-2 68 -6 85 -18 85
-12 0 -16 -15 -18 -67 -2 -57 -6 -68 -23 -73 -31 -10 -38 3 -41 75 -2 52 -6
65 -20 68 -16 3 -18 -6 -18 -72z"/>
<path d="M967 10823 c-4 -3 -7 -44 -7 -90 0 -76 2 -83 20 -83 17 0 19 8 22 68
3 61 5 67 26 70 14 2 22 10 22 23 0 21 -20 25 -37 8 -8 -8 -13 -8 -17 0 -8 12
-20 14 -29 4z"/>
<path d="M1707 10810 c-31 -25 -41 -62 -27 -106 31 -93 150 -63 150 38 0 73
-68 111 -123 68z m81 -42 c27 -56 -17 -110 -59 -72 -23 21 -24 52 -3 82 20 29
45 25 62 -10z"/>
<path d="M1869 10773 c-2 -116 2 -122 82 -121 l60 1 -3 86 c-2 68 -6 86 -18
86 -11 0 -16 -17 -20 -70 -4 -62 -7 -70 -27 -73 -30 -4 -44 27 -41 90 3 43 0
53 -14 56 -15 3 -18 -5 -19 -55z"/>
<path d="M2057 10823 c-4 -3 -7 -44 -7 -90 0 -75 2 -84 18 -81 14 3 17 14 17
58 0 63 8 80 36 80 12 0 19 7 19 20 0 22 -12 25 -41 10 -13 -7 -19 -7 -19 0 0
11 -13 13 -23 3z"/>
<path d="M2473 10806 c-24 -21 -28 -31 -27 -72 1 -55 27 -84 76 -84 63 0 97
74 63 139 -24 48 -68 54 -112 17z m86 -41 c12 -25 12 -32 0 -54 -8 -14 -23
-28 -34 -30 -40 -7 -60 65 -28 101 22 25 45 19 62 -17z"/>
<path d="M2656 10809 c-36 -28 -38 -105 -3 -137 44 -41 108 -25 127 32 14 44
4 81 -27 106 -33 26 -64 25 -97 -1z m83 -40 c29 -51 -19 -114 -57 -76 -22 22
-20 77 3 94 24 17 36 13 54 -18z"/>
<path d="M2997 10823 c-4 -3 -7 -44 -7 -90 0 -76 2 -83 20 -83 19 0 20 7 20
90 0 68 -3 90 -13 90 -8 0 -17 -3 -20 -7z"/>
<path d="M3074 10817 c-3 -8 -4 -47 -2 -88 2 -61 6 -74 21 -77 15 -3 17 5 17
62 0 56 3 67 21 76 35 19 49 -3 49 -77 0 -56 2 -64 18 -61 19 4 28 67 17 126
-8 41 -43 61 -80 44 -15 -7 -27 -8 -30 -2 -9 14 -25 12 -31 -3z"/>
<path d="M3274 10805 c-56 -56 -15 -166 56 -152 22 5 30 3 30 -8 0 -23 -36
-38 -60 -25 -20 11 -40 6 -40 -9 0 -11 46 -31 71 -31 11 0 31 11 45 25 23 23
25 30 22 121 l-3 96 -48 4 c-41 3 -52 0 -73 -21z m74 -17 c7 -7 12 -31 12 -54
0 -34 -4 -44 -20 -49 -31 -10 -50 12 -50 56 0 26 6 41 18 48 22 13 26 13 40
-1z"/>
<path d="M3755 10805 c-19 -18 -25 -35 -25 -68 0 -55 30 -87 82 -87 39 0 68
24 51 41 -8 8 -13 7 -17 0 -17 -26 -76 -5 -76 27 0 10 13 13 53 10 50 -3 52
-2 55 24 4 35 -37 78 -73 78 -14 0 -37 -11 -50 -25z m82 -38 c-6 -19 -67 -22
-67 -3 0 22 31 36 53 24 10 -5 16 -15 14 -21z"/>
<path d="M4042 10814 c-12 -8 -22 -22 -22 -30 0 -18 5 -18 35 2 27 17 55 13
55 -9 0 -7 -18 -17 -42 -23 -33 -7 -45 -15 -52 -36 -16 -45 13 -67 83 -66 l56
1 -3 71 c-3 56 -8 75 -24 89 -25 21 -57 22 -86 1z m66 -106 c-3 -25 -34 -36
-50 -20 -17 17 -1 42 27 42 22 0 26 -4 23 -22z"/>
<path d="M4200 10740 c0 -73 3 -90 15 -90 12 0 15 17 15 90 0 73 -3 90 -15 90
-12 0 -15 -17 -15 -90z"/>
<path d="M4382 10814 c-24 -17 -29 -56 -9 -71 6 -6 26 -15 42 -20 39 -13 47
-43 10 -43 -14 0 -28 7 -31 15 -7 17 -30 20 -39 5 -11 -17 34 -50 68 -50 38 0
71 28 65 57 -2 10 -24 28 -50 41 -27 12 -48 26 -48 32 0 18 41 22 59 6 22 -20
41 -21 41 -2 0 19 -38 46 -65 46 -11 0 -31 -7 -43 -16z"/>
<path d="M6617 10816 c-8 -19 15 -37 32 -26 17 10 7 40 -13 40 -7 0 -16 -6
-19 -14z"/>
<path d="M1335 10760 c-12 -19 10 -32 46 -28 48 4 46 32 -3 36 -20 2 -39 -2
-43 -8z"/>
<path d="M5550 10750 c0 -17 7 -20 40 -20 33 0 40 3 40 20 0 17 -7 20 -40 20
-33 0 -40 -3 -40 -20z"/>
<path d="M6626 10693 c-3 -4 -6 -15 -6 -25 0 -24 33 -21 38 3 3 17 -21 33 -32
22z"/>
<path d="M392 8678 l3 -723 2 718 3 717 45 0 45 0 0 -709 0 -710 -22 -4 c-20
-4 -19 -4 5 -6 l27 -1 0 195 c0 188 1 195 20 195 14 0 20 -7 20 -21 0 -16 5
-20 28 -17 l27 3 3 93 3 92 58 0 c39 0 63 5 71 14 6 8 25 16 42 18 18 2 33 9
34 16 1 7 0 8 -3 2 -2 -5 -18 -10 -34 -10 l-29 0 0 150 0 150 30 0 c32 0 33
-2 32 -75 l-1 -30 7 29 c8 34 32 52 56 43 14 -6 16 -22 14 -119 -3 -111 -4
-113 -27 -116 -13 -2 -28 2 -33 10 -8 10 -9 10 -5 -2 2 -10 16 -15 38 -15 33
0 34 1 37 43 l3 42 80 0 c68 0 79 -2 79 -17 0 -10 4 -23 8 -30 4 -6 7 32 7 85
0 72 -2 89 -9 69 -10 -26 -12 -27 -88 -27 l-78 0 0 34 c0 40 -21 60 -54 52
-18 -4 -25 -1 -29 14 -4 15 -14 20 -36 20 -19 0 -34 6 -37 15 -4 8 -16 15 -28
14 -21 0 -21 0 2 -9 22 -9 22 -11 20 -182 l-3 -173 -62 -3 -63 -3 0 180 c0
130 3 180 12 183 7 3 6 7 -5 11 -16 6 -17 -15 -17 -278 0 -278 0 -285 -20
-285 -18 0 -20 7 -22 78 -1 62 -2 67 -5 25 -3 -45 -7 -53 -24 -53 -18 0 -19 9
-19 314 l0 315 23 4 22 4 -22 2 -23 1 0 195 0 195 -55 0 -55 0 2 -722z m658
12 l0 -30 -80 0 -80 0 0 30 0 30 80 0 80 0 0 -30z"/>
<path d="M1208 9083 c6 -2 18 -2 25 0 6 3 1 5 -13 5 -14 0 -19 -2 -12 -5z"/>
<path d="M1175 9069 c-4 -6 -5 -12 -2 -15 2 -3 7 2 10 11 7 17 1 20 -8 4z"/>
<path d="M1270 9070 c14 -4 36 -8 50 -8 22 0 22 1 -5 8 -16 4 -39 8 -50 8 -16
0 -15 -2 5 -8z"/>
<path d="M1398 9053 c17 -2 47 -2 65 0 17 2 3 4 -33 4 -36 0 -50 -2 -32 -4z"/>
<path d="M1530 9056 c0 -2 7 -9 15 -16 9 -7 15 -8 15 -2 0 5 -7 12 -15 16 -8
3 -15 4 -15 2z"/>
<path d="M593 8975 c0 -44 2 -61 4 -37 2 23 2 59 0 80 -2 20 -4 1 -4 -43z"/>
<path d="M1178 9009 c6 -7 12 -24 12 -38 0 -22 -8 -29 -52 -46 -28 -11 -54
-27 -56 -35 -4 -12 -1 -12 14 2 24 21 67 38 124 48 39 7 41 8 13 9 -23 1 -33
6 -33 17 0 12 7 14 33 9 17 -4 34 -11 37 -15 8 -11 190 -20 190 -9 0 5 -30 9
-67 9 -75 0 -160 19 -201 46 -15 9 -21 11 -14 3z"/>
<path d="M1550 8990 c0 -5 -19 -15 -41 -22 -23 -6 -37 -14 -31 -16 15 -5 82
25 82 37 0 6 -2 11 -5 11 -3 0 -5 -4 -5 -10z"/>
<path d="M1500 8923 c19 -8 51 -29 70 -46 l35 -32 -30 34 c-27 30 -82 62 -102
60 -4 0 8 -7 27 -16z"/>
<path d="M1740 8911 c-24 -7 -70 -63 -70 -85 1 -6 10 6 21 27 11 21 28 40 37
43 55 18 65 30 12 15z"/>
<path d="M1810 8895 c0 -2 9 -19 20 -37 23 -39 27 -30 5 12 -14 27 -25 38 -25
25z"/>
<path d="M1607 8819 c4 -13 8 -18 11 -10 2 7 -1 18 -6 23 -8 8 -9 4 -5 -13z"/>
<path d="M1062 8810 c0 -14 2 -19 5 -12 2 6 2 18 0 25 -3 6 -5 1 -5 -13z"/>
<path d="M1662 8785 c0 -16 2 -22 5 -12 2 9 2 23 0 30 -3 6 -5 -1 -5 -18z"/>
<path d="M1851 8784 c0 -11 3 -14 6 -6 3 7 2 16 -1 19 -3 4 -6 -2 -5 -13z"/>
<path d="M1622 8760 c0 -14 2 -19 5 -12 2 6 2 18 0 25 -3 6 -5 1 -5 -13z"/>
<path d="M1863 8685 c0 -33 2 -45 4 -27 2 18 2 45 0 60 -2 15 -4 0 -4 -33z"/>
<path d="M1648 8723 c17 -3 22 -11 22 -35 0 -25 -3 -29 -20 -25 -11 3 -20 1
-20 -4 0 -5 12 -9 26 -9 23 0 25 3 22 38 -3 31 -7 37 -28 39 -22 1 -22 1 -2
-4z"/>
<path d="M801 8634 c0 -11 3 -14 6 -6 3 7 2 16 -1 19 -3 4 -6 -2 -5 -13z"/>
<path d="M1622 8610 c0 -14 2 -19 5 -12 2 6 2 18 0 25 -3 6 -5 1 -5 -13z"/>
<path d="M1661 8604 c0 -11 3 -14 6 -6 3 7 2 16 -1 19 -3 4 -6 -2 -5 -13z"/>
<path d="M1851 8584 c0 -11 3 -14 6 -6 3 7 2 16 -1 19 -3 4 -6 -2 -5 -13z"/>
<path d="M1062 8560 c0 -14 2 -19 5 -12 2 6 2 18 0 25 -3 6 -5 1 -5 -13z"/>
<path d="M1608 8557 c-3 -19 -2 -25 4 -19 6 6 8 18 6 28 -3 14 -5 12 -10 -9z"/>
<path d="M1835 8520 c-3 -11 -18 -29 -32 -40 -14 -11 -21 -20 -15 -20 12 0 62
57 62 71 0 16 -8 10 -15 -11z"/>
<path d="M1680 8523 c0 -6 9 -21 21 -34 l20 -24 -17 30 c-24 39 -24 40 -24 28z"/>
<path d="M1776 8513 c-6 -14 -5 -15 5 -6 7 7 10 15 7 18 -3 3 -9 -2 -12 -12z"/>
<path d="M1571 8496 c-13 -14 -36 -30 -52 -37 -16 -6 -28 -14 -25 -16 7 -8 60
24 85 51 14 14 22 26 19 26 -2 0 -15 -11 -27 -24z"/>
<path d="M1080 8491 c0 -10 39 -46 43 -40 2 2 -7 14 -20 26 -13 12 -23 19 -23
14z"/>
<path d="M1746 8475 c-16 -12 -17 -15 -4 -15 9 0 18 7 22 15 7 18 6 18 -18 0z"/>
<path d="M1173 8433 c18 -5 24 -48 7 -58 -5 -3 -10 -11 -10 -16 0 -6 7 -3 15
5 18 17 74 35 150 46 l50 8 -55 1 c-31 0 -60 -3 -65 -8 -6 -4 -22 -11 -37 -15
-21 -5 -28 -3 -28 9 0 10 10 15 32 15 45 0 31 6 -27 12 -27 3 -42 4 -32 1z"/>
<path d="M1408 8423 c12 -2 30 -2 40 0 9 3 -1 5 -23 4 -22 0 -30 -2 -17 -4z"/>
<path d="M1500 8409 c19 -6 42 -16 50 -22 13 -9 13 -9 0 6 -8 9 -31 19 -50 22
l-35 5 35 -11z"/>
<path d="M1530 8319 c-22 -18 -22 -19 -3 -10 12 6 25 16 28 21 9 15 3 12 -25
-11z"/>
<path d="M1170 8311 c0 -15 38 -33 58 -28 13 4 11 5 -5 6 -12 0 -29 8 -37 17
-9 8 -16 11 -16 5z"/>
<path d="M1408 8313 c12 -2 30 -2 40 0 9 3 -1 5 -23 4 -22 0 -30 -2 -17 -4z"/>
<path d="M1313 8303 c9 -2 23 -2 30 0 6 3 -1 5 -18 5 -16 0 -22 -2 -12 -5z"/>
<path d="M1268 8293 c7 -3 16 -2 19 1 4 3 -2 6 -13 5 -11 0 -14 -3 -6 -6z"/>
<path d="M390 6821 l0 -721 28 1 c23 2 24 2 5 6 l-23 4 0 710 0 709 45 0 45 0
0 -197 0 -198 25 0 c14 0 25 5 25 12 0 6 -8 9 -20 6 -19 -5 -20 1 -22 188 l-3
194 -52 3 -53 3 0 -720z"/>
<path d="M4610 6821 l0 -721 28 1 c23 2 24 2 5 6 l-23 4 0 710 0 709 45 0 45
0 0 -197 0 -198 25 0 c14 0 25 5 25 12 0 6 -8 9 -20 6 -19 -5 -20 1 -22 188
l-3 194 -52 3 -53 3 0 -720z"/>
<path d="M4513 7523 c15 -2 39 -2 55 0 15 2 2 4 -28 4 -30 0 -43 -2 -27 -4z"/>
<path d="M4583 7355 c0 -22 2 -30 4 -17 2 12 2 30 0 40 -3 9 -5 -1 -4 -23z"/>
<path d="M4583 7240 c0 -25 2 -35 4 -22 2 12 2 32 0 45 -2 12 -4 2 -4 -23z"/>
<path d="M1208 7223 c6 -2 18 -2 25 0 6 3 1 5 -13 5 -14 0 -19 -2 -12 -5z"/>
<path d="M5428 7223 c6 -2 18 -2 25 0 6 3 1 5 -13 5 -14 0 -19 -2 -12 -5z"/>
<path d="M1172 7208 c-31 -31 5 -86 62 -95 20 -3 36 -9 36 -13 0 -4 40 -9 88
-12 133 -8 208 -45 243 -123 10 -22 19 -34 19 -27 0 42 -64 112 -122 133 -21
7 -38 16 -38 20 0 3 -30 7 -68 8 -152 4 -260 59 -210 109 7 7 10 12 7 12 -3 0
-10 -5 -17 -12z"/>
<path d="M1270 7210 c14 -4 34 -8 45 -8 16 0 15 2 -5 8 -14 4 -34 8 -45 8 -16
0 -15 -2 5 -8z"/>
<path d="M5392 7208 c-31 -31 5 -86 62 -95 20 -3 36 -9 36 -13 0 -4 40 -9 88
-12 133 -8 208 -45 243 -123 10 -22 19 -34 19 -27 0 42 -64 112 -122 133 -21
7 -38 16 -38 20 0 3 -30 7 -68 8 -152 4 -260 59 -210 109 7 7 10 12 7 12 -3 0
-10 -5 -17 -12z"/>
<path d="M5490 7210 c14 -4 34 -8 45 -8 16 0 15 2 -5 8 -14 4 -34 8 -45 8 -16
0 -15 -2 5 -8z"/>
<path d="M1398 7193 c17 -2 47 -2 65 0 17 2 3 4 -33 4 -36 0 -50 -2 -32 -4z"/>
<path d="M1541 7183 c7 -10 15 -20 16 -22 2 -2 3 3 3 11 0 9 -7 19 -16 22 -15
6 -15 4 -3 -11z"/>
<path d="M3718 7193 c7 -3 16 -2 19 1 4 3 -2 6 -13 5 -11 0 -14 -3 -6 -6z"/>
<path d="M3794 7187 c28 -21 17 -59 -24 -79 -19 -9 -28 -17 -19 -18 26 0 69
39 69 64 0 23 -17 46 -34 46 -5 0 -2 -6 8 -13z"/>
<path d="M5618 7193 c17 -2 47 -2 65 0 17 2 3 4 -33 4 -36 0 -50 -2 -32 -4z"/>
<path d="M5761 7183 c7 -10 15 -20 16 -22 2 -2 3 3 3 11 0 9 -7 19 -16 22 -15
6 -15 4 -3 -11z"/>
<path d="M588 7138 c5 -95 9 -104 11 -25 0 42 -2 77 -6 77 -5 0 -7 -24 -5 -52z"/>
<path d="M3663 7183 c9 -2 23 -2 30 0 6 3 -1 5 -18 5 -16 0 -22 -2 -12 -5z"/>
<path d="M4808 7138 c5 -95 9 -104 11 -25 0 42 -2 77 -6 77 -5 0 -7 -24 -5
-52z"/>
<path d="M3430 7165 c-6 -8 -10 -20 -7 -27 4 -9 6 -7 6 4 1 9 13 21 29 26 23
9 24 11 6 11 -12 1 -27 -6 -34 -14z"/>
<path d="M3528 7173 c23 -2 59 -2 80 0 20 2 1 4 -43 4 -44 0 -61 -2 -37 -4z"/>
<path d="M4392 7088 l2 -93 3 88 c3 79 6 87 23 87 20 0 20 -9 20 -365 0 -358
0 -365 -20 -365 -18 0 -20 7 -20 83 0 45 -2 168 -3 272 l-2 190 -68 3 c-53 2
-68 0 -73 -13 -4 -9 -19 -15 -40 -15 -21 0 -37 -6 -40 -14 -3 -8 -6 -70 -7
-138 l-2 -123 -30 0 -30 0 0 115 c0 113 0 114 25 121 21 6 22 7 5 8 -30 1 -45
-18 -45 -56 l0 -33 -79 0 -80 0 -4 33 c-2 17 -5 -13 -5 -67 -1 -55 1 -97 4
-93 3 3 6 31 5 61 l0 56 79 0 80 0 0 -69 c0 -76 13 -97 54 -89 18 4 26 0 29
-14 3 -10 13 -17 24 -17 16 1 16 2 1 6 -16 4 -18 20 -18 154 l0 149 30 0 31 0
-3 -155 c-2 -100 1 -154 7 -152 6 2 11 66 12 158 1 85 2 160 3 167 0 10 17 12
63 10 l62 -3 2 -185 c1 -102 2 -225 2 -273 l1 -88 28 3 c19 2 28 9 30 25 2 13
12 23 25 26 l22 4 -22 2 -23 1 0 315 c0 308 0 315 20 315 11 0 20 4 20 9 0 5
-9 7 -19 4 -15 -4 -20 1 -23 19 -2 17 -10 24 -30 26 l-28 3 2 -93z"/>
<path d="M1541 7126 c-6 -7 -26 -17 -44 -21 -17 -4 -27 -9 -20 -11 15 -7 83
22 83 35 0 15 -5 14 -19 -3z"/>
<path d="M5761 7126 c-6 -7 -26 -17 -44 -21 -17 -4 -27 -9 -20 -11 15 -7 83
22 83 35 0 15 -5 14 -19 -3z"/>
<path d="M492 6808 l-2 -318 25 0 c14 0 25 5 25 10 0 6 -9 10 -20 10 -19 0
-20 8 -23 308 l-2 307 -3 -317z"/>
<path d="M3420 7113 c0 -6 7 -16 15 -23 25 -21 17 -48 -25 -90 -22 -22 -40
-46 -40 -52 0 -7 8 -1 17 12 20 30 57 60 92 77 22 11 23 12 4 7 -17 -4 -23 -1
-23 10 0 17 46 23 52 7 2 -6 25 -6 58 -2 l55 9 -50 1 c-71 2 -127 17 -142 37
-7 10 -13 13 -13 7z"/>
<path d="M4712 6808 l-2 -318 25 0 c14 0 25 5 25 10 0 6 -9 10 -20 10 -19 0
-20 8 -23 308 l-2 307 -3 -317z"/>
<path d="M1191 7099 c-1 -9 -16 -21 -33 -27 -32 -11 -32 -11 -3 -5 17 3 48 9
70 13 37 7 38 8 8 9 -17 0 -34 7 -36 14 -4 8 -6 6 -6 -4z"/>
<path d="M5411 7099 c-1 -9 -16 -21 -33 -27 -32 -11 -32 -11 -3 -5 17 3 48 9
70 13 37 7 38 8 8 9 -17 0 -34 7 -36 14 -4 8 -6 6 -6 -4z"/>
<path d="M3665 7082 c-35 -4 -29 -7 45 -17 47 -7 96 -15 110 -18 20 -6 20 -4
-5 8 -16 8 -45 14 -63 15 -20 0 -31 4 -27 10 3 6 0 9 -7 8 -7 -1 -31 -4 -53
-6z"/>
<path d="M1097 7048 c-22 -18 -37 -62 -36 -106 1 -32 3 -29 9 16 5 34 16 63
31 78 24 26 23 32 -4 12z"/>
<path d="M1735 7050 c-12 -4 -27 -16 -35 -26 -14 -18 -14 -18 6 -1 11 9 27 17
35 17 8 0 21 5 29 10 13 9 13 10 0 9 -8 0 -24 -4 -35 -9z"/>
<path d="M5317 7048 c-22 -18 -37 -62 -36 -106 1 -32 3 -29 9 16 5 34 16 63
31 78 24 26 23 32 -4 12z"/>
<path d="M5955 7050 c-12 -4 -27 -16 -35 -26 -14 -18 -14 -18 6 -1 11 9 27 17
35 17 8 0 21 5 29 10 13 9 13 10 0 9 -8 0 -24 -4 -35 -9z"/>
<path d="M1809 7027 c12 -14 29 -47 37 -73 13 -46 13 -46 8 -9 -7 46 -31 92
-53 100 -9 4 -6 -4 8 -18z"/>
<path d="M6029 7027 c12 -14 29 -47 37 -73 13 -46 13 -46 8 -9 -7 46 -31 92
-53 100 -9 4 -6 -4 8 -18z"/>
<path d="M3862 7030 c23 -14 40 -46 49 -90 l7 -35 1 31 c1 34 -35 95 -59 101
-10 3 -10 1 2 -7z"/>
<path d="M589 7027 c-5 -15 -10 -335 -5 -359 l6 -33 64 3 c40 2 69 9 77 18 6
8 25 14 41 14 20 0 31 6 35 18 3 14 12 17 35 14 36 -5 48 9 48 56 l0 33 85 -3
85 -3 0 45 0 45 -85 -3 -85 -3 0 34 c0 41 -21 62 -54 53 -18 -4 -25 -1 -29 14
-4 15 -14 20 -36 20 -19 0 -34 6 -37 15 -4 8 -11 15 -16 15 -7 0 -6 -5 1 -14
8 -9 11 -66 9 -182 l-3 -169 -62 -3 -63 -3 0 180 c0 130 3 180 12 183 7 3 6 7
-5 11 -9 3 -17 5 -18 4z m211 -197 l0 -150 -30 0 -30 0 0 150 0 150 30 0 30 0
0 -150z m75 0 c0 -114 0 -115 -24 -118 -13 -2 -28 2 -32 10 -5 7 -9 56 -9 109
0 100 8 122 45 117 19 -3 20 -10 20 -118z m175 0 l0 -30 -80 0 -80 0 0 30 0
30 80 0 80 0 0 -30z"/>
<path d="M3177 7019 c-20 -12 -47 -61 -47 -86 1 -13 29 49 30 65 0 2 15 9 33
17 17 8 25 14 17 14 -8 0 -23 -4 -33 -10z"/>
<path d="M3220 7008 c-23 -35 -34 -54 -24 -43 44 49 56 65 48 65 -5 0 -16 -10
-24 -22z"/>
<path d="M4809 7027 c-5 -15 -10 -335 -5 -359 l6 -33 64 3 c40 2 69 9 77 18 6
8 25 14 41 14 20 0 31 6 35 18 3 14 12 17 35 14 36 -5 48 9 48 56 l0 33 85 -3
85 -3 0 45 0 45 -85 -3 -85 -3 0 34 c0 41 -21 62 -54 53 -18 -4 -25 -1 -29 14
-4 15 -14 20 -36 20 -19 0 -34 6 -37 15 -4 8 -11 15 -16 15 -7 0 -6 -5 1 -14
8 -9 11 -66 9 -182 l-3 -169 -62 -3 -63 -3 0 180 c0 130 3 180 12 183 7 3 6 7
-5 11 -9 3 -17 5 -18 4z m211 -197 l0 -150 -30 0 -30 0 0 150 0 150 30 0 30 0
0 -150z m75 0 c0 -114 0 -115 -24 -118 -13 -2 -28 2 -32 10 -5 7 -9 56 -9 109
0 100 8 122 45 117 19 -3 20 -10 20 -118z m175 0 l0 -30 -80 0 -80 0 0 30 0
30 80 0 80 0 0 -30z"/>
<path d="M3260 7016 c0 -2 8 -10 18 -17 15 -13 16 -12 3 4 -13 16 -21 21 -21
13z"/>
<path d="M1676 6985 c-9 -26 -7 -32 5 -12 6 10 9 21 6 23 -2 3 -7 -2 -11 -11z"/>
<path d="M5896 6985 c-9 -26 -7 -32 5 -12 6 10 9 21 6 23 -2 3 -7 -2 -11 -11z"/>
<path d="M3290 6975 c0 -5 5 -17 10 -25 5 -8 10 -10 10 -5 0 6 -5 17 -10 25
-5 8 -10 11 -10 5z"/>
<path d="M1662 6930 c0 -14 2 -19 5 -12 2 6 2 18 0 25 -3 6 -5 1 -5 -13z"/>
<path d="M5882 6930 c0 -14 2 -19 5 -12 2 6 2 18 0 25 -3 6 -5 1 -5 -13z"/>
<path d="M3311 6914 c0 -11 3 -14 6 -6 3 7 2 16 -1 19 -3 4 -6 -2 -5 -13z"/>
<path d="M3361 6914 c0 -11 3 -14 6 -6 3 7 2 16 -1 19 -3 4 -6 -2 -5 -13z"/>
<path d="M1624 6825 c0 -55 2 -85 4 -67 3 29 22 47 22 20 0 -6 7 -3 15 8 18
24 18 64 0 88 -8 11 -15 14 -15 8 0 -24 -19 -11 -22 16 -2 15 -4 -18 -4 -73z
m46 4 c0 -23 -4 -30 -17 -27 -9 2 -16 6 -15 11 1 4 2 16 2 27 0 11 7 20 15 20
10 0 15 -10 15 -31z"/>
<path d="M5844 6825 c0 -55 2 -85 4 -67 3 29 22 47 22 20 0 -6 7 -3 15 8 8 10
14 30 14 44 0 14 -6 34 -14 44 -8 11 -15 14 -15 8 0 -24 -19 -11 -22 16 -2 15
-4 -18 -4 -73z m46 4 c0 -23 -4 -30 -17 -27 -9 2 -16 6 -15 11 1 4 2 16 2 27
0 11 7 20 15 20 10 0 15 -10 15 -31z"/>
<path d="M3121 6894 c0 -11 3 -14 6 -6 3 7 2 16 -1 19 -3 4 -6 -2 -5 -13z"/>
<path d="M1863 6825 c0 -33 2 -45 4 -27 2 18 2 45 0 60 -2 15 -4 0 -4 -33z"/>
<path d="M3321 6863 c0 -12 -5 -25 -11 -28 -13 -8 -13 -58 -1 -70 5 -6 11 -21
14 -35 4 -24 4 -24 6 3 1 33 18 36 24 5 2 -13 4 15 4 62 0 47 -2 75 -4 63 -2
-13 -8 -23 -13 -23 -5 0 -11 10 -13 23 -4 22 -4 22 -6 0z m29 -63 c0 -20 -5
-30 -15 -30 -18 0 -30 24 -21 45 10 28 36 17 36 -15z"/>
<path d="M6083 6825 c0 -33 2 -45 4 -27 2 18 2 45 0 60 -2 15 -4 0 -4 -33z"/>
<path d="M1812 6820 c0 -19 2 -27 5 -17 2 9 2 25 0 35 -3 9 -5 1 -5 -18z"/>
<path d="M6032 6820 c0 -19 2 -27 5 -17 2 9 2 25 0 35 -3 9 -5 1 -5 -18z"/>
<path d="M1661 6732 c-1 -28 24 -90 46 -114 21 -23 49 -23 58 0 5 14 4 15 -6
5 -30 -30 -63 3 -85 85 -7 26 -13 37 -13 24z"/>
<path d="M5881 6732 c-1 -28 24 -90 46 -114 21 -23 49 -23 58 0 5 14 4 15 -6
5 -30 -30 -63 3 -85 85 -7 26 -13 37 -13 24z"/>
<path d="M1063 6705 c0 -22 2 -30 4 -17 2 12 2 30 0 40 -3 9 -5 -1 -4 -23z"/>
<path d="M1852 6720 c0 -14 2 -19 5 -12 2 6 2 18 0 25 -3 6 -5 1 -5 -13z"/>
<path d="M3122 6715 c0 -16 2 -22 5 -12 2 9 2 23 0 30 -3 6 -5 -1 -5 -18z"/>
<path d="M5283 6705 c0 -22 2 -30 4 -17 2 12 2 30 0 40 -3 9 -5 -1 -4 -23z"/>
<path d="M6072 6720 c0 -14 2 -19 5 -12 2 6 2 18 0 25 -3 6 -5 1 -5 -13z"/>
<path d="M1606 6696 c-9 -38 -52 -82 -96 -100 -22 -9 -40 -18 -40 -21 0 -2 11
0 25 5 14 5 25 7 25 4 0 -3 20 14 44 36 39 37 65 84 53 97 -3 2 -7 -7 -11 -21z"/>
<path d="M5826 6696 c-9 -38 -52 -82 -96 -100 -22 -9 -40 -18 -40 -21 0 -2 11
0 25 5 14 5 25 7 25 4 0 -3 20 14 44 36 39 37 65 84 53 97 -3 2 -7 -7 -11 -21z"/>
<path d="M3360 6697 c0 -26 24 -69 57 -97 l28 -25 -28 31 c-16 18 -35 49 -42
70 -8 22 -14 31 -15 21z"/>
<path d="M3176 6687 c3 -10 9 -15 12 -12 3 3 0 11 -7 18 -10 9 -11 8 -5 -6z"/>
<path d="M3308 6674 c-4 -17 -19 -45 -33 -63 -18 -20 -21 -29 -10 -25 20 8 57
80 53 102 -2 10 -7 4 -10 -14z"/>
<path d="M1840 6674 c0 -8 -13 -29 -29 -45 -16 -16 -26 -29 -21 -29 13 0 60
60 60 76 0 8 -2 14 -5 14 -3 0 -5 -7 -5 -16z"/>
<path d="M3911 6667 c-2 -49 -28 -84 -73 -101 -29 -11 -33 -14 -13 -10 64 12
101 58 92 113 -4 26 -4 26 -6 -2z"/>
<path d="M6060 6674 c0 -8 -13 -29 -29 -45 -16 -16 -26 -29 -21 -29 13 0 60
60 60 76 0 8 -2 14 -5 14 -3 0 -5 -7 -5 -16z"/>
<path d="M3131 6664 c0 -11 3 -14 6 -6 3 7 2 16 -1 19 -3 4 -6 -2 -5 -13z"/>
<path d="M1776 6653 c-6 -14 -5 -15 5 -6 7 7 10 15 7 18 -3 3 -9 -2 -12 -12z"/>
<path d="M5996 6653 c-6 -14 -5 -15 5 -6 7 7 10 15 7 18 -3 3 -9 -2 -12 -12z"/>
<path d="M1070 6652 c0 -17 55 -72 72 -72 7 1 1 7 -14 16 -15 8 -34 27 -42 42
-9 15 -15 21 -16 14z"/>
<path d="M5290 6652 c0 -8 13 -27 29 -43 16 -16 35 -29 43 -29 7 1 1 7 -14 16
-15 8 -34 27 -42 42 -9 15 -15 21 -16 14z"/>
<path d="M3190 6644 c0 -6 7 -19 16 -30 14 -18 14 -18 3 6 -14 31 -19 36 -19
24z"/>
<path d="M3140 6632 c0 -5 12 -21 26 -36 26 -25 74 -36 74 -16 0 6 -10 8 -24
4 -18 -4 -29 2 -50 26 -14 17 -26 27 -26 22z"/>
<path d="M4250 6621 c0 -5 7 -12 16 -15 14 -5 15 -4 4 9 -14 17 -20 19 -20 6z"/>
<path d="M592 6541 l-2 -83 -29 4 c-17 2 -28 1 -25 -4 8 -13 54 -9 60 5 3 8 3
47 1 88 l-3 74 -2 -84z"/>
<path d="M4812 6541 l-2 -83 -29 4 c-17 2 -28 1 -25 -4 8 -13 54 -9 60 5 3 8
3 47 1 88 l-3 74 -2 -84z"/>
<path d="M1178 6573 c16 -6 15 -43 -3 -67 -8 -11 -15 -26 -15 -33 0 -21 38
-53 63 -52 17 1 15 3 -10 10 -58 17 -53 72 9 96 27 11 28 12 6 8 -21 -4 -28
-1 -28 10 0 17 56 22 62 5 2 -7 30 -7 85 1 94 12 186 -1 203 -29 5 -9 10 -12
10 -6 0 14 -26 37 -49 42 -9 2 -79 5 -156 6 -77 2 -151 5 -165 8 -14 3 -19 3
-12 1z"/>
<path d="M3450 6551 c0 -16 -7 -34 -15 -41 -23 -19 -17 -80 8 -80 7 0 7 4 -1
12 -29 29 -7 78 34 78 13 0 26 5 29 10 4 7 -2 9 -19 4 -20 -5 -26 -2 -26 11 0
13 6 16 25 11 35 -9 31 0 -5 13 -29 10 -30 9 -30 -18z"/>
<path d="M5398 6573 c16 -6 15 -43 -3 -67 -8 -11 -15 -26 -15 -33 0 -21 38
-53 63 -52 17 1 15 3 -10 10 -58 17 -53 72 9 96 27 11 28 12 6 8 -21 -4 -28
-1 -28 10 0 17 56 22 62 5 2 -7 30 -7 85 1 94 12 186 -1 203 -29 5 -9 10 -12
10 -6 0 14 -26 37 -49 42 -9 2 -79 5 -156 6 -77 2 -151 5 -165 8 -14 3 -19 3
-12 1z"/>
<path d="M3520 6539 c0 -3 39 -9 88 -12 94 -6 178 -32 196 -59 16 -26 -4 -52
-45 -59 l-34 -6 32 -2 c48 -2 79 40 55 75 -9 14 -47 34 -81 44 -24 7 -22 8 17
16 34 7 13 9 -92 9 -75 0 -136 -3 -136 -6z"/>
<path d="M1550 6481 c-5 -11 -19 -23 -31 -26 -11 -4 -18 -9 -16 -12 9 -8 46
16 57 37 6 11 8 20 6 20 -3 0 -10 -9 -16 -19z"/>
<path d="M5770 6481 c-5 -11 -19 -23 -31 -26 -11 -4 -18 -9 -16 -12 9 -8 46
16 57 37 6 11 8 20 6 20 -3 0 -10 -9 -16 -19z"/>
<path d="M490 6296 c0 -183 0 -185 -22 -189 -20 -4 -19 -4 5 -6 l27 -1 0 190
c0 105 -2 190 -5 190 -3 0 -5 -83 -5 -184z"/>
<path d="M4710 6296 c0 -183 0 -185 -22 -189 -20 -4 -19 -4 5 -6 l27 -1 0 190
c0 105 -2 190 -5 190 -3 0 -5 -83 -5 -184z"/>
<path d="M1403 6453 c15 -2 39 -2 55 0 15 2 2 4 -28 4 -30 0 -43 -2 -27 -4z"/>
<path d="M5623 6453 c15 -2 39 -2 55 0 15 2 2 4 -28 4 -30 0 -43 -2 -27 -4z"/>
<path d="M1275 6440 c-13 -6 -5 -7 25 -3 25 3 47 7 49 9 9 8 -55 2 -74 -6z"/>
<path d="M5495 6440 c-13 -6 -5 -7 25 -3 25 3 47 7 49 9 9 8 -55 2 -74 -6z"/>
<path d="M3643 6423 c9 -2 23 -2 30 0 6 3 -1 5 -18 5 -16 0 -22 -2 -12 -5z"/>
<path d="M3698 6413 c7 -3 16 -2 19 1 4 3 -2 6 -13 5 -11 0 -14 -3 -6 -6z"/>
<path d="M4535 6100 l-50 -7 53 -1 c29 -1 52 2 52 8 0 6 -1 9 -2 8 -2 0 -25
-4 -53 -8z"/>
<path d="M4513 5853 c15 -2 39 -2 55 0 15 2 2 4 -28 4 -30 0 -43 -2 -27 -4z"/>
<path d="M4610 5141 l0 -721 28 1 c23 2 24 2 5 6 l-23 4 0 710 0 709 45 0 45
0 0 -197 0 -198 25 0 c14 0 25 5 25 12 0 6 -8 9 -20 6 -19 -5 -20 1 -22 188
l-3 194 -52 3 -53 3 0 -720z"/>
<path d="M4583 5685 c0 -22 2 -30 4 -17 2 12 2 30 0 40 -3 9 -5 -1 -4 -23z"/>
<path d="M390 4961 l0 -721 28 1 c23 2 24 2 5 6 l-23 4 0 710 0 709 45 0 45 0
0 -197 0 -198 25 0 c14 0 25 5 25 12 0 6 -8 9 -20 6 -19 -5 -20 1 -22 188 l-3
194 -52 3 -53 3 0 -720z"/>
<path d="M4583 5570 c0 -25 2 -35 4 -22 2 12 2 32 0 45 -2 12 -4 2 -4 -23z"/>
<path d="M5428 5543 c6 -2 18 -2 25 0 6 3 1 5 -13 5 -14 0 -19 -2 -12 -5z"/>
<path d="M5392 5528 c-31 -31 5 -86 62 -95 20 -3 36 -9 36 -13 0 -4 40 -9 88
-12 133 -8 208 -45 243 -123 10 -22 19 -34 19 -27 0 42 -64 112 -122 133 -21
7 -38 16 -38 20 0 3 -30 7 -68 8 -152 4 -260 59 -210 109 7 7 10 12 7 12 -3 0
-10 -5 -17 -12z"/>
<path d="M5490 5530 c14 -4 34 -8 45 -8 16 0 15 2 -5 8 -14 4 -34 8 -45 8 -16
0 -15 -2 5 -8z"/>
<path d="M3718 5523 c7 -3 16 -2 19 1 4 3 -2 6 -13 5 -11 0 -14 -3 -6 -6z"/>
<path d="M3794 5517 c28 -21 17 -59 -24 -79 -19 -9 -28 -17 -19 -18 26 0 69
39 69 64 0 23 -17 46 -34 46 -5 0 -2 -6 8 -13z"/>
<path d="M3663 5513 c9 -2 23 -2 30 0 6 3 -1 5 -18 5 -16 0 -22 -2 -12 -5z"/>
<path d="M5618 5513 c17 -2 47 -2 65 0 17 2 3 4 -33 4 -36 0 -50 -2 -32 -4z"/>
<path d="M5761 5503 c7 -10 15 -20 16 -22 2 -2 3 3 3 11 0 9 -7 19 -16 22 -15
6 -15 4 -3 -11z"/>
<path d="M3430 5495 c-6 -8 -10 -20 -7 -27 4 -9 6 -7 6 4 1 9 13 21 29 26 23
9 24 11 6 11 -12 1 -27 -6 -34 -14z"/>
<path d="M3528 5503 c23 -2 59 -2 80 0 20 2 1 4 -43 4 -44 0 -61 -2 -37 -4z"/>
<path d="M4392 5418 l2 -93 3 88 c3 79 6 87 23 87 20 0 20 -9 20 -365 0 -358
0 -365 -20 -365 -18 0 -20 7 -20 83 0 45 -2 168 -3 272 l-2 190 -68 3 c-53 2
-68 0 -73 -13 -4 -9 -19 -15 -40 -15 -21 0 -37 -6 -40 -14 -3 -8 -6 -70 -7
-138 l-2 -123 -30 0 -30 0 0 115 c0 113 0 114 25 121 21 6 22 7 5 8 -30 1 -45
-18 -45 -56 l0 -33 -79 0 -80 0 -4 33 c-2 17 -5 -13 -5 -67 -1 -55 1 -97 4
-93 3 3 6 31 5 61 l0 56 79 0 80 0 0 -69 c0 -76 13 -97 54 -89 18 4 26 0 29
-14 3 -10 13 -17 24 -17 16 1 16 2 1 6 -16 4 -18 20 -18 154 l0 149 30 0 31 0
-3 -155 c-2 -100 1 -154 7 -152 6 2 11 66 12 158 1 85 2 160 3 167 0 10 17 12
63 10 l62 -3 2 -185 c1 -102 2 -225 2 -273 l1 -88 28 3 c19 2 28 9 30 25 2 13
12 23 25 26 l22 4 -22 2 -23 1 0 315 c0 308 0 315 20 315 11 0 20 4 20 9 0 5
-9 7 -19 4 -15 -4 -20 1 -23 19 -2 17 -10 24 -30 26 l-28 3 2 -93z"/>
<path d="M4808 5458 c5 -95 9 -104 11 -25 0 42 -2 77 -6 77 -5 0 -7 -24 -5
-52z"/>
<path d="M5761 5446 c-6 -7 -26 -17 -44 -21 -17 -4 -27 -9 -20 -11 15 -7 83
22 83 35 0 15 -5 14 -19 -3z"/>
<path d="M3420 5443 c0 -6 7 -16 15 -23 25 -21 17 -48 -25 -90 -22 -22 -40
-46 -40 -52 0 -7 8 -1 17 12 20 30 57 60 92 77 22 11 23 12 4 7 -17 -4 -23 -1
-23 10 0 17 46 23 52 7 2 -6 25 -6 58 -2 l55 9 -50 1 c-71 2 -127 17 -142 37
-7 10 -13 13 -13 7z"/>
<path d="M4712 5128 l-2 -318 25 0 c14 0 25 5 25 10 0 6 -9 10 -20 10 -19 0
-20 8 -23 308 l-2 307 -3 -317z"/>
<path d="M5411 5419 c-1 -9 -16 -21 -33 -27 -32 -11 -32 -11 -3 -5 17 3 48 9
70 13 37 7 38 8 8 9 -17 0 -34 7 -36 14 -4 8 -6 6 -6 -4z"/>
<path d="M3665 5412 c-35 -4 -29 -7 45 -17 47 -7 96 -15 110 -18 20 -6 20 -4
-5 8 -16 8 -45 14 -63 15 -20 0 -31 4 -27 10 3 6 0 9 -7 8 -7 -1 -31 -4 -53
-6z"/>
<path d="M5317 5368 c-22 -18 -37 -62 -36 -106 1 -32 3 -29 9 16 5 34 16 63
31 78 24 26 23 32 -4 12z"/>
<path d="M5955 5370 c-12 -4 -27 -16 -35 -26 -14 -18 -14 -18 6 -1 11 9 27 17
35 17 8 0 21 5 29 10 13 9 13 10 0 9 -8 0 -24 -4 -35 -9z"/>
<path d="M1208 5363 c6 -2 18 -2 25 0 6 3 1 5 -13 5 -14 0 -19 -2 -12 -5z"/>
<path d="M3862 5360 c23 -14 40 -46 49 -90 l7 -35 1 31 c1 34 -35 95 -59 101
-10 3 -10 1 2 -7z"/>
<path d="M6029 5347 c12 -14 29 -47 37 -73 13 -46 13 -46 8 -9 -7 46 -31 92
-53 100 -9 4 -6 -4 8 -18z"/>
<path d="M1172 5348 c-31 -31 5 -86 62 -95 20 -3 36 -9 36 -13 0 -4 40 -9 88
-12 133 -8 208 -45 243 -123 10 -22 19 -34 19 -27 0 42 -64 112 -122 133 -21
7 -38 16 -38 20 0 3 -30 7 -68 8 -152 4 -260 59 -210 109 7 7 10 12 7 12 -3 0
-10 -5 -17 -12z"/>
<path d="M1270 5350 c14 -4 34 -8 45 -8 16 0 15 2 -5 8 -14 4 -34 8 -45 8 -16
0 -15 -2 5 -8z"/>
<path d="M3177 5349 c-20 -12 -47 -61 -47 -86 1 -13 29 49 30 65 0 2 15 9 33
17 17 8 25 14 17 14 -8 0 -23 -4 -33 -10z"/>
<path d="M3220 5338 c-23 -35 -34 -54 -24 -43 44 49 56 65 48 65 -5 0 -16 -10
-24 -22z"/>
<path d="M3260 5346 c0 -2 8 -10 18 -17 15 -13 16 -12 3 4 -13 16 -21 21 -21
13z"/>
<path d="M4809 5347 c-5 -15 -10 -335 -5 -359 l6 -33 64 3 c40 2 69 9 77 18 6
8 25 14 41 14 20 0 31 6 35 18 3 14 12 17 35 14 36 -5 48 9 48 56 l0 33 85 -3
85 -3 0 45 0 45 -85 -3 -85 -3 0 34 c0 41 -21 62 -54 53 -18 -4 -25 -1 -29 14
-4 15 -14 20 -36 20 -19 0 -34 6 -37 15 -4 8 -11 15 -16 15 -7 0 -6 -5 1 -14
8 -9 11 -66 9 -182 l-3 -169 -62 -3 -63 -3 0 180 c0 130 3 180 12 183 7 3 6 7
-5 11 -9 3 -17 5 -18 4z m211 -197 l0 -150 -30 0 -30 0 0 150 0 150 30 0 30 0
0 -150z m75 0 c0 -114 0 -115 -24 -118 -13 -2 -28 2 -32 10 -5 7 -9 56 -9 109
0 100 8 122 45 117 19 -3 20 -10 20 -118z m175 0 l0 -30 -80 0 -80 0 0 30 0
30 80 0 80 0 0 -30z"/>
<path d="M1398 5333 c17 -2 47 -2 65 0 17 2 3 4 -33 4 -36 0 -50 -2 -32 -4z"/>
<path d="M1541 5323 c7 -10 15 -20 16 -22 2 -2 3 3 3 11 0 9 -7 19 -16 22 -15
6 -15 4 -3 -11z"/>
<path d="M588 5278 c5 -95 9 -104 11 -25 0 42 -2 77 -6 77 -5 0 -7 -24 -5 -52z"/>
<path d="M5896 5305 c-9 -26 -7 -32 5 -12 6 10 9 21 6 23 -2 3 -7 -2 -11 -11z"/>
<path d="M3290 5305 c0 -5 5 -17 10 -25 5 -8 10 -10 10 -5 0 6 -5 17 -10 25
-5 8 -10 11 -10 5z"/>
<path d="M1541 5266 c-6 -7 -26 -17 -44 -21 -17 -4 -27 -9 -20 -11 15 -7 83
22 83 35 0 15 -5 14 -19 -3z"/>
<path d="M5882 5250 c0 -14 2 -19 5 -12 2 6 2 18 0 25 -3 6 -5 1 -5 -13z"/>
<path d="M492 4948 l-2 -318 25 0 c14 0 25 5 25 10 0 6 -9 10 -20 10 -19 0
-20 8 -23 308 l-2 307 -3 -317z"/>
<path d="M3311 5244 c0 -11 3 -14 6 -6 3 7 2 16 -1 19 -3 4 -6 -2 -5 -13z"/>
<path d="M3361 5244 c0 -11 3 -14 6 -6 3 7 2 16 -1 19 -3 4 -6 -2 -5 -13z"/>
<path d="M1191 5239 c-1 -9 -16 -21 -33 -27 -32 -11 -32 -11 -3 -5 17 3 48 9
70 13 37 7 38 8 8 9 -17 0 -34 7 -36 14 -4 8 -6 6 -6 -4z"/>
<path d="M3121 5224 c0 -11 3 -14 6 -6 3 7 2 16 -1 19 -3 4 -6 -2 -5 -13z"/>
<path d="M5844 5145 c0 -55 2 -85 4 -67 3 29 22 47 22 20 0 -6 7 -3 15 8 8 10
14 30 14 44 0 14 -6 34 -14 44 -8 11 -15 14 -15 8 0 -24 -19 -11 -22 16 -2 15
-4 -18 -4 -73z m46 4 c0 -23 -4 -30 -17 -27 -9 2 -16 6 -15 11 1 4 2 16 2 27
0 11 7 20 15 20 10 0 15 -10 15 -31z"/>
<path d="M3321 5193 c0 -12 -5 -25 -11 -28 -13 -8 -13 -58 -1 -70 5 -6 11 -21
14 -35 4 -24 4 -24 6 3 1 33 18 36 24 5 2 -13 4 15 4 62 0 47 -2 75 -4 63 -2
-13 -8 -23 -13 -23 -5 0 -11 10 -13 23 -4 22 -4 22 -6 0z m29 -63 c0 -20 -5
-30 -15 -30 -18 0 -30 24 -21 45 10 28 36 17 36 -15z"/>
<path d="M1097 5188 c-22 -18 -37 -62 -36 -106 1 -32 3 -29 9 16 5 34 16 63
31 78 24 26 23 32 -4 12z"/>
<path d="M1735 5190 c-12 -4 -27 -16 -35 -26 -14 -18 -14 -18 6 -1 11 9 27 17
35 17 8 0 21 5 29 10 13 9 13 10 0 9 -8 0 -24 -4 -35 -9z"/>
<path d="M6083 5145 c0 -33 2 -45 4 -27 2 18 2 45 0 60 -2 15 -4 0 -4 -33z"/>
<path d="M1809 5167 c12 -14 29 -47 37 -73 13 -46 13 -46 8 -9 -7 46 -31 92
-53 100 -9 4 -6 -4 8 -18z"/>
<path d="M589 5167 c-5 -15 -10 -335 -5 -359 l6 -33 64 3 c40 2 69 9 77 18 6
8 25 14 41 14 20 0 31 6 35 18 3 14 12 17 35 14 36 -5 48 9 48 56 l0 33 85 -3
85 -3 0 45 0 45 -85 -3 -85 -3 0 34 c0 41 -21 62 -54 53 -18 -4 -25 -1 -29 14
-4 15 -14 20 -36 20 -19 0 -34 6 -37 15 -4 8 -11 15 -16 15 -7 0 -6 -5 1 -14
8 -9 11 -66 9 -182 l-3 -169 -62 -3 -63 -3 0 180 c0 130 3 180 12 183 7 3 6 7
-5 11 -9 3 -17 5 -18 4z m211 -197 l0 -150 -30 0 -30 0 0 150 0 150 30 0 30 0
0 -150z m75 0 c0 -114 0 -115 -24 -118 -13 -2 -28 2 -32 10 -5 7 -9 56 -9 109
0 100 8 122 45 117 19 -3 20 -10 20 -118z m175 0 l0 -30 -80 0 -80 0 0 30 0
30 80 0 80 0 0 -30z"/>
<path d="M6032 5140 c0 -19 2 -27 5 -17 2 9 2 25 0 35 -3 9 -5 1 -5 -18z"/>
<path d="M1676 5125 c-9 -26 -7 -32 5 -12 6 10 9 21 6 23 -2 3 -7 -2 -11 -11z"/>
<path d="M1662 5070 c0 -14 2 -19 5 -12 2 6 2 18 0 25 -3 6 -5 1 -5 -13z"/>
<path d="M3122 5045 c0 -16 2 -22 5 -12 2 9 2 23 0 30 -3 6 -5 -1 -5 -18z"/>
<path d="M5881 5052 c-1 -28 24 -90 46 -114 21 -23 49 -23 58 0 5 14 4 15 -6
5 -30 -30 -63 3 -85 85 -7 26 -13 37 -13 24z"/>
<path d="M1624 4965 c0 -55 2 -85 4 -67 3 29 22 47 22 20 0 -6 7 -3 15 8 18
24 18 64 0 88 -8 11 -15 14 -15 8 0 -24 -19 -11 -22 16 -2 15 -4 -18 -4 -73z
m46 4 c0 -23 -4 -30 -17 -27 -9 2 -16 6 -15 11 1 4 2 16 2 27 0 11 7 20 15 20
10 0 15 -10 15 -31z"/>
<path d="M5283 5025 c0 -22 2 -30 4 -17 2 12 2 30 0 40 -3 9 -5 -1 -4 -23z"/>
<path d="M6072 5040 c0 -14 2 -19 5 -12 2 6 2 18 0 25 -3 6 -5 1 -5 -13z"/>
<path d="M3360 5027 c0 -26 24 -69 57 -97 l28 -25 -28 31 c-16 18 -35 49 -42
70 -8 22 -14 31 -15 21z"/>
<path d="M5826 5016 c-9 -38 -52 -82 -96 -100 -22 -9 -40 -18 -40 -21 0 -2 11
0 25 5 14 5 25 7 25 4 0 -3 20 14 44 36 39 37 65 84 53 97 -3 2 -7 -7 -11 -21z"/>
<path d="M3176 5017 c3 -10 9 -15 12 -12 3 3 0 11 -7 18 -10 9 -11 8 -5 -6z"/>
<path d="M3308 5004 c-4 -17 -19 -45 -33 -63 -18 -20 -21 -29 -10 -25 20 8 57
80 53 102 -2 10 -7 4 -10 -14z"/>
<path d="M1863 4965 c0 -33 2 -45 4 -27 2 18 2 45 0 60 -2 15 -4 0 -4 -33z"/>
<path d="M3911 4997 c-2 -49 -28 -84 -73 -101 -29 -11 -33 -14 -13 -10 64 12
101 58 92 113 -4 26 -4 26 -6 -2z"/>
<path d="M3131 4994 c0 -11 3 -14 6 -6 3 7 2 16 -1 19 -3 4 -6 -2 -5 -13z"/>
<path d="M6060 4994 c0 -8 -13 -29 -29 -45 -16 -16 -26 -29 -21 -29 13 0 60
60 60 76 0 8 -2 14 -5 14 -3 0 -5 -7 -5 -16z"/>
<path d="M1812 4960 c0 -19 2 -27 5 -17 2 9 2 25 0 35 -3 9 -5 1 -5 -18z"/>
<path d="M5996 4973 c-6 -14 -5 -15 5 -6 7 7 10 15 7 18 -3 3 -9 -2 -12 -12z"/>
<path d="M3190 4974 c0 -6 7 -19 16 -30 14 -18 14 -18 3 6 -14 31 -19 36 -19
24z"/>
<path d="M5290 4972 c0 -17 55 -72 72 -72 7 1 1 7 -14 16 -15 8 -34 27 -42 42
-9 15 -15 21 -16 14z"/>
<path d="M3140 4962 c0 -5 12 -21 26 -36 26 -25 74 -36 74 -16 0 6 -10 8 -24
4 -18 -4 -29 2 -50 26 -14 17 -26 27 -26 22z"/>
<path d="M4250 4951 c0 -5 7 -12 16 -15 14 -5 15 -4 4 9 -14 17 -20 19 -20 6z"/>
<path d="M4812 4861 l-2 -83 -29 4 c-17 2 -28 1 -25 -4 8 -13 54 -9 60 5 3 8
3 47 1 88 l-3 74 -2 -84z"/>
<path d="M3450 4881 c0 -16 -7 -34 -15 -41 -23 -19 -17 -80 8 -80 7 0 7 4 -1
12 -29 29 -7 78 34 78 13 0 26 5 29 10 4 7 -2 9 -19 4 -20 -5 -26 -2 -26 11 0
13 6 16 25 11 35 -9 31 0 -5 13 -29 10 -30 9 -30 -18z"/>
<path d="M5398 4893 c16 -6 15 -43 -3 -67 -8 -11 -15 -26 -15 -33 0 -21 38
-53 63 -52 17 1 15 3 -10 10 -58 17 -53 72 9 96 27 11 28 12 6 8 -21 -4 -28
-1 -28 10 0 17 56 22 62 5 2 -7 30 -7 85 1 94 12 186 -1 203 -29 5 -9 10 -12
10 -6 0 14 -26 37 -49 42 -9 2 -79 5 -156 6 -77 2 -151 5 -165 8 -14 3 -19 3
-12 1z"/>
<path d="M1661 4872 c-1 -28 24 -90 46 -114 21 -23 49 -23 58 0 5 14 4 15 -6
5 -30 -30 -63 3 -85 85 -7 26 -13 37 -13 24z"/>
<path d="M1063 4845 c0 -22 2 -30 4 -17 2 12 2 30 0 40 -3 9 -5 -1 -4 -23z"/>
<path d="M1852 4860 c0 -14 2 -19 5 -12 2 6 2 18 0 25 -3 6 -5 1 -5 -13z"/>
<path d="M3520 4869 c0 -3 39 -9 88 -12 94 -6 178 -32 196 -59 16 -26 -4 -52
-45 -59 l-34 -6 32 -2 c48 -2 79 40 55 75 -9 14 -47 34 -81 44 -24 7 -22 8 17
16 34 7 13 9 -92 9 -75 0 -136 -3 -136 -6z"/>
<path d="M1606 4836 c-9 -38 -52 -82 -96 -100 -22 -9 -40 -18 -40 -21 0 -2 11
0 25 5 14 5 25 7 25 4 0 -3 20 14 44 36 39 37 65 84 53 97 -3 2 -7 -7 -11 -21z"/>
<path d="M1840 4814 c0 -8 -13 -29 -29 -45 -16 -16 -26 -29 -21 -29 13 0 60
60 60 76 0 8 -2 14 -5 14 -3 0 -5 -7 -5 -16z"/>
<path d="M5770 4801 c-5 -11 -19 -23 -31 -26 -11 -4 -18 -9 -16 -12 9 -8 46
16 57 37 6 11 8 20 6 20 -3 0 -10 -9 -16 -19z"/>
<path d="M1776 4793 c-6 -14 -5 -15 5 -6 7 7 10 15 7 18 -3 3 -9 -2 -12 -12z"/>
<path d="M1070 4792 c0 -17 55 -72 72 -72 7 1 1 7 -14 16 -15 8 -34 27 -42 42
-9 15 -15 21 -16 14z"/>
<path d="M4710 4616 c0 -183 0 -185 -22 -189 -20 -4 -19 -4 5 -6 l27 -1 0 190
c0 105 -2 190 -5 190 -3 0 -5 -83 -5 -184z"/>
<path d="M5623 4773 c15 -2 39 -2 55 0 15 2 2 4 -28 4 -30 0 -43 -2 -27 -4z"/>
<path d="M5495 4760 c-13 -6 -5 -7 25 -3 25 3 47 7 49 9 9 8 -55 2 -74 -6z"/>
<path d="M592 4681 l-2 -83 -29 4 c-17 2 -28 1 -25 -4 8 -13 54 -9 60 5 3 8 3
47 1 88 l-3 74 -2 -84z"/>
<path d="M3643 4753 c9 -2 23 -2 30 0 6 3 -1 5 -18 5 -16 0 -22 -2 -12 -5z"/>
<path d="M3698 4743 c7 -3 16 -2 19 1 4 3 -2 6 -13 5 -11 0 -14 -3 -6 -6z"/>
<path d="M1178 4713 c16 -6 15 -43 -3 -67 -8 -11 -15 -26 -15 -33 0 -21 38
-53 63 -52 17 1 15 3 -10 10 -58 17 -53 72 9 96 27 11 28 12 6 8 -21 -4 -28
-1 -28 10 0 17 56 22 62 5 2 -7 30 -7 85 1 94 12 186 -1 203 -29 5 -9 10 -12
10 -6 0 14 -26 37 -49 42 -9 2 -79 5 -156 6 -77 2 -151 5 -165 8 -14 3 -19 3
-12 1z"/>
<path d="M1550 4621 c-5 -11 -19 -23 -31 -26 -11 -4 -18 -9 -16 -12 9 -8 46
16 57 37 6 11 8 20 6 20 -3 0 -10 -9 -16 -19z"/>
<path d="M490 4436 c0 -183 0 -185 -22 -189 -20 -4 -19 -4 5 -6 l27 -1 0 190
c0 105 -2 190 -5 190 -3 0 -5 -83 -5 -184z"/>
<path d="M1403 4593 c15 -2 39 -2 55 0 15 2 2 4 -28 4 -30 0 -43 -2 -27 -4z"/>
<path d="M1275 4580 c-13 -6 -5 -7 25 -3 25 3 47 7 49 9 9 8 -55 2 -74 -6z"/>
<path d="M4535 4430 l-50 -7 53 -1 c29 -1 52 2 52 8 0 6 -1 9 -2 8 -2 0 -25
-4 -53 -8z"/>
<path d="M4825 1070 c11 -5 27 -9 35 -9 13 -1 13 0 0 9 -8 5 -24 9 -35 9 l-20
0 20 -9z"/>
<path d="M4778 1063 c7 -3 16 -2 19 1 4 3 -2 6 -13 5 -11 0 -14 -3 -6 -6z"/>
<path d="M4735 1050 c-3 -6 1 -7 9 -4 18 7 21 14 7 14 -6 0 -13 -4 -16 -10z"/>
<path d="M4694 1005 c-9 -13 -14 -29 -12 -35 2 -7 11 5 21 24 19 41 15 47 -9
11z"/>
<path d="M5552 932 c-1 -47 2 -71 8 -67 6 3 10 13 10 22 0 13 5 12 25 -7 29
-27 32 -20 9 16 -16 23 -15 26 1 44 10 11 13 20 8 20 -6 0 -16 -7 -23 -15 -20
-24 -29 -18 -33 23 -2 20 -4 4 -5 -36z"/>
<path d="M5800 980 c0 -15 -7 -20 -25 -20 -34 0 -53 -39 -37 -75 9 -20 18 -25
42 -23 l30 2 0 68 c0 37 -2 68 -5 68 -3 0 -5 -9 -5 -20z m-4 -54 c7 -31 -1
-46 -27 -46 -14 0 -19 7 -19 28 0 48 35 61 46 18z"/>
<path d="M5900 982 c-27 -22 -19 -44 23 -63 18 -8 31 -18 30 -24 -3 -16 -45
-18 -54 -4 -4 8 -11 10 -15 6 -10 -10 16 -37 36 -37 60 0 70 47 15 73 -19 9
-35 21 -35 27 0 20 31 22 50 5 18 -16 20 -16 20 -2 0 9 -9 21 -19 27 -25 13
-25 13 -51 -8z"/>
<path d="M6317 989 c-13 -8 -17 -18 -13 -35 4 -13 1 -32 -6 -43 -18 -30 5 -52
52 -49 33 3 37 6 38 32 1 21 -2 26 -10 18 -8 -8 -15 -8 -24 -1 -11 9 -10 15 2
34 13 20 13 24 -1 39 -9 9 -17 16 -18 16 -1 0 -10 -5 -20 -11z m31 -26 c-4
-22 -22 -20 -26 1 -2 10 3 16 13 16 10 0 15 -7 13 -17z m2 -74 c0 -5 -9 -9
-20 -9 -19 0 -27 20 -13 33 7 8 33 -11 33 -24z"/>
<path d="M6454 989 c-2 -4 5 -9 16 -12 17 -4 20 -14 20 -62 0 -37 4 -54 11
-50 6 4 9 30 8 58 -3 42 0 51 16 57 15 5 8 8 -23 11 -24 3 -45 2 -48 -2z"/>
<path d="M5229 988 c-3 -23 -5 -106 -1 -115 6 -17 53 -16 77 1 13 9 16 18 10
32 -5 10 -9 33 -9 49 -1 27 -4 30 -38 33 -21 2 -38 2 -39 0z m66 -28 c0 -18
-33 -26 -47 -12 -6 6 -7 15 -3 22 10 16 50 8 50 -10z m0 -60 c0 -9 -11 -16
-27 -18 -23 -3 -28 1 -28 18 0 17 5 21 28 18 16 -2 27 -9 27 -18z"/>
<path d="M6190 965 c-7 -9 -8 -15 0 -20 5 -3 10 -24 10 -46 0 -28 4 -39 15
-39 8 0 15 5 15 10 0 6 -4 10 -10 10 -13 0 -13 53 -1 66 6 5 4 14 -4 21 -10
10 -16 9 -25 -2z"/>
<path d="M4961 954 c0 -11 3 -14 6 -6 3 7 2 16 -1 19 -3 4 -6 -2 -5 -13z"/>
<path d="M5342 936 c-20 -45 28 -95 63 -66 18 15 20 61 3 78 -20 20 -54 14
-66 -12z m58 -5 c14 -27 2 -53 -24 -49 -24 4 -33 33 -16 53 17 20 27 19 40 -4z"/>
<path d="M5452 948 c-17 -17 -15 -63 3 -78 38 -32 90 24 65 70 -12 22 -49 27
-68 8z m51 -20 c14 -22 1 -48 -23 -48 -15 0 -20 7 -20 28 0 44 22 54 43 20z"/>
<path d="M5640 939 c-24 -45 21 -98 62 -73 9 6 4 10 -16 14 -40 7 -39 24 2 28
36 4 36 5 22 33 -14 26 -56 25 -70 -2z m60 -10 c0 -5 -12 -9 -26 -9 -22 0 -24
2 -14 14 12 15 40 11 40 -5z"/>
<path d="M6002 948 c-7 -7 -12 -24 -12 -38 0 -14 5 -31 12 -38 15 -15 55 -16
64 -1 3 6 -1 10 -12 9 -34 -4 -44 0 -44 15 0 10 10 15 30 15 18 0 30 5 30 13
0 18 -21 37 -40 37 -9 0 -21 -5 -28 -12z m48 -19 c0 -5 -9 -9 -20 -9 -22 0
-27 16 -7 23 15 5 27 -1 27 -14z"/>
<path d="M6097 954 c-15 -15 -6 -24 12 -14 26 13 31 13 31 -4 0 -8 -12 -17
-26 -20 -19 -5 -25 -12 -22 -29 2 -17 10 -22 36 -23 l33 -1 -3 46 c-3 41 -6
46 -28 49 -14 2 -29 0 -33 -4z m46 -59 c1 -5 -6 -11 -15 -13 -11 -2 -18 3 -18
13 0 17 30 18 33 0z"/>
<path d="M6560 916 c0 -25 5 -48 10 -51 6 -4 10 13 10 44 0 28 -4 51 -10 51
-5 0 -10 -20 -10 -44z"/>
<path d="M6611 907 c1 -48 2 -49 8 -17 9 47 18 60 36 53 10 -3 16 -21 17 -47
l1 -41 4 37 c4 36 27 67 40 54 4 -3 10 -25 14 -49 l7 -42 -1 50 -2 50 -62 2
-63 3 1 -53z"/>
<path d="M6776 938 c-9 -12 -16 -28 -16 -34 0 -18 37 -46 56 -42 26 5 28 24 2
23 -36 0 -36 20 0 23 36 4 36 5 22 33 -14 26 -45 24 -64 -3z m40 -16 c-22 -5
-30 3 -21 18 5 8 11 7 22 -2 15 -12 14 -13 -1 -16z"/>
<path d="M5080 940 c0 -5 15 -10 34 -10 19 0 38 5 41 10 4 6 -10 10 -34 10
-23 0 -41 -4 -41 -10z"/>
<path d="M4673 919 c4 -13 7 -30 7 -36 0 -7 4 -13 8 -13 12 0 2 59 -11 67 -6
4 -8 -2 -4 -18z"/>
<path d="M5098 903 c12 -2 30 -2 40 0 9 3 -1 5 -23 4 -22 0 -30 -2 -17 -4z"/>
<path d="M4700 844 c0 -7 10 -19 23 -25 12 -7 25 -17 29 -23 4 -6 9 -8 12 -5
3 3 -10 19 -29 36 -21 19 -35 26 -35 17z"/>
<path d="M4818 783 c6 -2 18 -2 25 0 6 3 1 5 -13 5 -14 0 -19 -2 -12 -5z"/>
<path d="M5245 546 c-27 -61 -33 -92 -11 -63 16 21 62 23 70 2 3 -8 10 -15 15
-15 10 0 -25 106 -40 124 -5 5 -20 -16 -34 -48z m41 -23 c-2 -3 -11 -3 -19 -1
-11 2 -12 9 -5 28 l10 25 9 -24 c5 -13 7 -26 5 -28z"/>
<path d="M5530 590 c0 -5 5 -10 10 -10 6 0 10 5 10 10 0 6 -4 10 -10 10 -5 0
-10 -4 -10 -10z"/>
<path d="M5577 539 c2 -83 13 -88 13 -6 0 37 -3 67 -7 67 -5 0 -7 -27 -6 -61z"/>
<path d="M5720 538 c0 -58 2 -66 21 -71 30 -8 48 2 56 31 8 31 -7 55 -38 62
-13 3 -24 11 -24 17 0 6 -3 15 -7 19 -5 4 -8 -22 -8 -58z m55 -24 c0 -19 -6
-30 -17 -32 -14 -3 -18 3 -18 26 0 16 3 32 7 36 14 13 28 -1 28 -30z"/>
<path d="M5820 535 c0 -37 4 -65 10 -65 6 0 10 28 10 65 0 37 -4 65 -10 65 -6
0 -10 -28 -10 -65z"/>
<path d="M6023 593 c-7 -2 -13 -16 -13 -29 0 -19 8 -29 35 -40 19 -8 35 -19
35 -24 0 -17 -31 -24 -51 -11 -11 6 -19 7 -19 1 0 -5 9 -14 21 -20 16 -9 26
-8 45 5 33 21 30 31 -16 60 -40 25 -45 45 -11 45 9 0 22 -5 29 -12 9 -9 12 -8
12 4 0 23 -35 34 -67 21z"/>
<path d="M6318 570 c-7 -22 5 -99 16 -103 10 -4 12 22 6 106 0 11 -18 9 -22
-3z"/>
<path d="M5347 515 c21 -64 32 -60 57 23 4 12 3 22 -2 22 -5 0 -14 -15 -19
-32 l-10 -33 -13 33 c-18 49 -31 38 -13 -13z"/>
<path d="M5435 550 c-4 -7 2 -9 19 -4 20 5 26 2 26 -9 0 -9 -10 -17 -22 -19
-14 -2 -24 -11 -26 -24 -3 -24 16 -35 48 -27 18 5 21 12 18 47 -3 36 -6 41
-30 44 -14 2 -29 -2 -33 -8z m45 -55 c0 -8 -6 -15 -14 -15 -17 0 -28 14 -19
24 12 12 33 6 33 -9z"/>
<path d="M5530 515 c0 -25 5 -45 10 -45 6 0 10 20 10 45 0 25 -4 45 -10 45 -5
0 -10 -20 -10 -45z"/>
<path d="M5625 550 c-4 -7 2 -9 19 -4 20 5 26 2 26 -10 0 -10 -9 -16 -25 -16
-20 0 -25 -5 -25 -24 0 -27 18 -37 50 -29 18 5 21 12 18 47 -3 36 -6 41 -30
44 -14 2 -29 -2 -33 -8z m45 -49 c0 -14 -18 -23 -30 -16 -6 4 -8 11 -5 16 8
12 35 12 35 0z"/>
<path d="M5872 548 c-18 -18 -15 -52 6 -71 23 -21 36 -21 52 -3 10 13 7 15
-16 13 -15 -1 -29 4 -31 11 -3 8 6 12 27 12 27 0 31 3 28 23 -3 25 -45 36 -66
15z m46 -16 c2 -7 -6 -12 -17 -12 -21 0 -27 11 -14 24 9 9 26 2 31 -12z"/>
<path d="M6120 540 c-21 -39 16 -88 54 -74 25 10 19 23 -10 21 -15 -1 -29 4
-31 11 -3 8 5 12 25 12 36 0 44 8 31 31 -13 25 -55 24 -69 -1z m51 -5 c0 -5
-9 -11 -21 -13 -20 -3 -27 8 -13 22 10 9 34 3 34 -9z"/>
<path d="M6220 550 c0 -5 8 -9 18 -7 9 1 19 -2 22 -8 3 -5 -5 -11 -18 -13 -13
-2 -26 -11 -29 -19 -8 -21 21 -41 51 -36 20 4 23 10 21 41 -1 21 -3 40 -4 45
-2 11 -61 9 -61 -3z m48 -52 c-7 -19 -38 -22 -38 -4 0 10 9 16 21 16 12 0 19
-5 17 -12z"/>
<path d="M5098 543 c12 -2 30 -2 40 0 9 3 -1 5 -23 4 -22 0 -30 -2 -17 -4z"/>
<path d="M5085 510 c-4 -6 8 -10 29 -10 20 0 36 5 36 10 0 6 -13 10 -29 10
-17 0 -33 -4 -36 -10z"/>
</g>
</svg>
